<svg xmlns="http://www.w3.org/2000/svg" viewBox="0 0 600 186" shape-rendering="crispEdges" role="img" aria-label="Dungeons2-LanDirect: A LAN mod prototype for Minecraft Dungeons II."><title>Dungeons2-LanDirect: A LAN mod prototype for Minecraft Dungeons II.</title><rect width="600" height="186" fill="#0d1117"/><svg x="28" y="27" width="58" height="58" viewBox="35 20 145 150"><path d="M84.44999999999999 74.7h52.8v1.65h-52.8ZM84.44999999999999 76.35h52.8v1.65h-52.8ZM74.55 89.55h9.899999999999999v1.65h-9.899999999999999ZM137.25 89.55h8.25v1.65h-8.25ZM74.55 91.19999999999999h9.899999999999999v1.65h-9.899999999999999ZM137.25 91.19999999999999h8.25v1.65h-8.25Z" fill="#b1a3d7" shape-rendering="crispEdges" /><path d="M84.44999999999999 78.0h52.8v1.65h-52.8ZM84.44999999999999 79.65h52.8v1.65h-52.8ZM84.44999999999999 81.3h52.8v1.65h-52.8ZM84.44999999999999 82.94999999999999h52.8v1.65h-52.8ZM84.44999999999999 84.6h52.8v1.65h-52.8ZM84.44999999999999 86.25h52.8v1.65h-52.8ZM84.44999999999999 87.9h52.8v1.65h-52.8ZM84.44999999999999 89.55h52.8v1.65h-52.8ZM84.44999999999999 91.19999999999999h52.8v1.65h-52.8ZM74.55 92.85h16.5v1.65h-16.5ZM129.0 92.85h16.5v1.65h-16.5ZM74.55 94.5h16.5v1.65h-16.5ZM129.0 94.5h16.5v1.65h-16.5ZM74.55 96.15h16.5v1.65h-16.5ZM129.0 96.15h16.5v1.65h-16.5ZM74.55 97.8h16.5v1.65h-16.5ZM129.0 97.8h16.5v1.65h-16.5ZM74.55 99.44999999999999h16.5v1.65h-16.5ZM129.0 99.44999999999999h16.5v1.65h-16.5ZM74.55 101.1h16.5v1.65h-16.5ZM129.0 101.1h16.5v1.65h-16.5ZM74.55 102.75h16.5v1.65h-16.5ZM129.0 102.75h16.5v1.65h-16.5ZM74.55 104.4h16.5v1.65h-16.5ZM129.0 104.4h16.5v1.65h-16.5ZM74.55 107.69999999999999h16.5v1.65h-16.5ZM129.0 107.69999999999999h16.5v1.65h-16.5ZM74.55 109.35h16.5v1.65h-16.5ZM129.0 109.35h16.5v1.65h-16.5ZM74.55 111.0h16.5v1.65h-16.5ZM129.0 111.0h16.5v1.65h-16.5ZM74.55 112.64999999999999h16.5v1.65h-16.5ZM129.0 112.64999999999999h16.5v1.65h-16.5ZM74.55 114.3h16.5v1.65h-16.5ZM129.0 114.3h16.5v1.65h-16.5ZM74.55 115.95h16.5v1.65h-16.5ZM129.0 115.95h16.5v1.65h-16.5ZM74.55 117.6h16.5v1.65h-16.5ZM129.0 117.6h16.5v1.65h-16.5ZM74.55 119.25h16.5v1.65h-16.5ZM129.0 119.25h16.5v1.65h-16.5ZM74.55 120.89999999999999h16.5v1.65h-16.5ZM129.0 120.89999999999999h16.5v1.65h-16.5ZM74.55 124.19999999999999h16.5v1.65h-16.5ZM129.0 124.19999999999999h16.5v1.65h-16.5ZM74.55 125.85h16.5v1.65h-16.5ZM129.0 125.85h16.5v1.65h-16.5ZM74.55 127.5h16.5v1.65h-16.5ZM129.0 127.5h16.5v1.65h-16.5ZM74.55 129.14999999999998h16.5v1.65h-16.5ZM129.0 129.14999999999998h16.5v1.65h-16.5ZM74.55 130.8h16.5v1.65h-16.5ZM129.0 130.8h16.5v1.65h-16.5ZM74.55 132.45h16.5v1.65h-16.5ZM129.0 132.45h16.5v1.65h-16.5ZM74.55 134.1h16.5v1.65h-16.5ZM129.0 134.1h16.5v1.65h-16.5ZM74.55 135.75h16.5v1.65h-16.5ZM129.0 135.75h16.5v1.65h-16.5ZM74.55 137.39999999999998h16.5v1.65h-16.5ZM129.0 137.39999999999998h16.5v1.65h-16.5ZM74.55 140.7h16.5v1.65h-16.5ZM129.0 140.7h16.5v1.65h-16.5ZM74.55 142.35h16.5v1.65h-16.5ZM129.0 142.35h16.5v1.65h-16.5ZM74.55 144.0h16.5v1.65h-16.5ZM129.0 144.0h16.5v1.65h-16.5ZM74.55 145.64999999999998h16.5v1.65h-16.5ZM129.0 145.64999999999998h16.5v1.65h-16.5ZM74.55 147.3h16.5v1.65h-16.5ZM129.0 147.3h16.5v1.65h-16.5ZM74.55 148.95h16.5v1.65h-16.5ZM129.0 148.95h16.5v1.65h-16.5ZM74.55 150.6h16.5v1.65h-16.5ZM129.0 150.6h16.5v1.65h-16.5ZM74.55 152.25h16.5v1.65h-16.5ZM129.0 152.25h16.5v1.65h-16.5ZM74.55 153.89999999999998h16.5v1.65h-16.5ZM129.0 153.89999999999998h16.5v1.65h-16.5ZM74.55 157.2h16.5v1.65h-16.5ZM129.0 157.2h16.5v1.65h-16.5ZM74.55 158.85h16.5v1.65h-16.5ZM129.0 158.85h16.5v1.65h-16.5ZM74.55 160.5h16.5v1.65h-16.5ZM129.0 160.5h16.5v1.65h-16.5ZM74.55 162.14999999999998h16.5v1.65h-16.5ZM129.0 162.14999999999998h16.5v1.65h-16.5ZM74.55 163.8h16.5v1.65h-16.5ZM129.0 163.8h16.5v1.65h-16.5ZM74.55 165.45h16.5v1.65h-16.5ZM129.0 165.45h16.5v1.65h-16.5ZM74.55 167.1h16.5v1.65h-16.5ZM129.0 167.1h16.5v1.65h-16.5ZM74.55 168.75h16.5v1.65h-16.5ZM129.0 168.75h16.5v1.65h-16.5Z" fill="#5a6182" shape-rendering="crispEdges" /><path d="M91.05 94.5h37.949999999999996v1.65h-37.949999999999996ZM91.05 96.15h37.949999999999996v1.65h-37.949999999999996ZM91.05 97.8h4.949999999999999v1.65h-4.949999999999999ZM124.05 97.8h4.949999999999999v1.65h-4.949999999999999ZM91.05 99.44999999999999h4.949999999999999v1.65h-4.949999999999999ZM124.05 99.44999999999999h4.949999999999999v1.65h-4.949999999999999ZM91.05 101.1h4.949999999999999v1.65h-4.949999999999999ZM124.05 101.1h4.949999999999999v1.65h-4.949999999999999ZM91.05 102.75h4.949999999999999v1.65h-4.949999999999999ZM124.05 102.75h4.949999999999999v1.65h-4.949999999999999ZM91.05 104.4h4.949999999999999v1.65h-4.949999999999999ZM124.05 104.4h4.949999999999999v1.65h-4.949999999999999ZM91.05 106.05h4.949999999999999v1.65h-4.949999999999999ZM124.05 106.05h4.949999999999999v1.65h-4.949999999999999ZM91.05 107.69999999999999h4.949999999999999v1.65h-4.949999999999999ZM124.05 107.69999999999999h4.949999999999999v1.65h-4.949999999999999ZM91.05 109.35h4.949999999999999v1.65h-4.949999999999999ZM124.05 109.35h4.949999999999999v1.65h-4.949999999999999ZM91.05 111.0h4.949999999999999v1.65h-4.949999999999999ZM124.05 111.0h4.949999999999999v1.65h-4.949999999999999ZM91.05 112.64999999999999h4.949999999999999v1.65h-4.949999999999999ZM124.05 112.64999999999999h4.949999999999999v1.65h-4.949999999999999ZM91.05 114.3h4.949999999999999v1.65h-4.949999999999999ZM124.05 114.3h4.949999999999999v1.65h-4.949999999999999ZM91.05 115.95h4.949999999999999v1.65h-4.949999999999999ZM124.05 115.95h4.949999999999999v1.65h-4.949999999999999ZM91.05 117.6h4.949999999999999v1.65h-4.949999999999999ZM124.05 117.6h4.949999999999999v1.65h-4.949999999999999ZM91.05 119.25h4.949999999999999v1.65h-4.949999999999999ZM124.05 119.25h4.949999999999999v1.65h-4.949999999999999ZM91.05 120.89999999999999h4.949999999999999v1.65h-4.949999999999999ZM124.05 120.89999999999999h4.949999999999999v1.65h-4.949999999999999ZM91.05 122.55h4.949999999999999v1.65h-4.949999999999999ZM124.05 122.55h4.949999999999999v1.65h-4.949999999999999ZM91.05 124.19999999999999h4.949999999999999v1.65h-4.949999999999999ZM124.05 124.19999999999999h4.949999999999999v1.65h-4.949999999999999ZM91.05 125.85h4.949999999999999v1.65h-4.949999999999999ZM124.05 125.85h4.949999999999999v1.65h-4.949999999999999ZM91.05 127.5h4.949999999999999v1.65h-4.949999999999999ZM124.05 127.5h4.949999999999999v1.65h-4.949999999999999ZM91.05 129.14999999999998h4.949999999999999v1.65h-4.949999999999999ZM124.05 129.14999999999998h4.949999999999999v1.65h-4.949999999999999ZM91.05 130.8h4.949999999999999v1.65h-4.949999999999999ZM124.05 130.8h4.949999999999999v1.65h-4.949999999999999ZM91.05 132.45h4.949999999999999v1.65h-4.949999999999999ZM124.05 132.45h4.949999999999999v1.65h-4.949999999999999ZM91.05 134.1h4.949999999999999v1.65h-4.949999999999999ZM124.05 134.1h4.949999999999999v1.65h-4.949999999999999ZM91.05 135.75h4.949999999999999v1.65h-4.949999999999999ZM124.05 135.75h4.949999999999999v1.65h-4.949999999999999ZM91.05 137.39999999999998h4.949999999999999v1.65h-4.949999999999999ZM124.05 137.39999999999998h4.949999999999999v1.65h-4.949999999999999ZM91.05 139.05h4.949999999999999v1.65h-4.949999999999999ZM124.05 139.05h4.949999999999999v1.65h-4.949999999999999ZM91.05 140.7h4.949999999999999v1.65h-4.949999999999999ZM124.05 140.7h4.949999999999999v1.65h-4.949999999999999ZM91.05 142.35h4.949999999999999v1.65h-4.949999999999999ZM124.05 142.35h4.949999999999999v1.65h-4.949999999999999ZM91.05 144.0h4.949999999999999v1.65h-4.949999999999999ZM124.05 144.0h4.949999999999999v1.65h-4.949999999999999ZM91.05 145.64999999999998h4.949999999999999v1.65h-4.949999999999999ZM124.05 145.64999999999998h4.949999999999999v1.65h-4.949999999999999ZM91.05 147.3h4.949999999999999v1.65h-4.949999999999999ZM124.05 147.3h4.949999999999999v1.65h-4.949999999999999ZM91.05 148.95h4.949999999999999v1.65h-4.949999999999999ZM124.05 148.95h4.949999999999999v1.65h-4.949999999999999ZM91.05 150.6h4.949999999999999v1.65h-4.949999999999999ZM124.05 150.6h4.949999999999999v1.65h-4.949999999999999ZM91.05 152.25h4.949999999999999v1.65h-4.949999999999999ZM124.05 152.25h4.949999999999999v1.65h-4.949999999999999ZM91.05 153.89999999999998h4.949999999999999v1.65h-4.949999999999999ZM124.05 153.89999999999998h4.949999999999999v1.65h-4.949999999999999ZM91.05 155.55h4.949999999999999v1.65h-4.949999999999999ZM124.05 155.55h4.949999999999999v1.65h-4.949999999999999ZM91.05 157.2h4.949999999999999v1.65h-4.949999999999999ZM124.05 157.2h4.949999999999999v1.65h-4.949999999999999ZM91.05 158.85h4.949999999999999v1.65h-4.949999999999999ZM124.05 158.85h4.949999999999999v1.65h-4.949999999999999ZM91.05 160.5h4.949999999999999v1.65h-4.949999999999999ZM124.05 160.5h4.949999999999999v1.65h-4.949999999999999ZM91.05 162.14999999999998h4.949999999999999v1.65h-4.949999999999999ZM124.05 162.14999999999998h4.949999999999999v1.65h-4.949999999999999ZM91.05 163.8h4.949999999999999v1.65h-4.949999999999999ZM124.05 163.8h4.949999999999999v1.65h-4.949999999999999ZM91.05 165.45h37.949999999999996v1.65h-37.949999999999996ZM91.05 167.1h37.949999999999996v1.65h-37.949999999999996Z" fill="#453984" shape-rendering="crispEdges" /><path d="M96.0 97.8h28.049999999999997v1.65h-28.049999999999997ZM96.0 99.44999999999999h6.6v1.65h-6.6ZM119.1 99.44999999999999h4.949999999999999v1.65h-4.949999999999999ZM96.0 101.1h6.6v1.65h-6.6ZM119.1 101.1h4.949999999999999v1.65h-4.949999999999999ZM96.0 102.75h6.6v1.65h-6.6ZM119.1 102.75h4.949999999999999v1.65h-4.949999999999999ZM96.0 104.4h6.6v1.65h-6.6ZM119.1 104.4h4.949999999999999v1.65h-4.949999999999999ZM96.0 106.05h6.6v1.65h-6.6ZM119.1 106.05h4.949999999999999v1.65h-4.949999999999999ZM96.0 107.69999999999999h6.6v1.65h-6.6ZM119.1 107.69999999999999h4.949999999999999v1.65h-4.949999999999999ZM96.0 109.35h6.6v1.65h-6.6ZM119.1 109.35h4.949999999999999v1.65h-4.949999999999999ZM96.0 111.0h6.6v1.65h-6.6ZM119.1 111.0h4.949999999999999v1.65h-4.949999999999999ZM96.0 112.64999999999999h6.6v1.65h-6.6ZM119.1 112.64999999999999h4.949999999999999v1.65h-4.949999999999999ZM96.0 114.3h6.6v1.65h-6.6ZM119.1 114.3h4.949999999999999v1.65h-4.949999999999999ZM96.0 115.95h6.6v1.65h-6.6ZM119.1 115.95h4.949999999999999v1.65h-4.949999999999999ZM96.0 117.6h6.6v1.65h-6.6ZM119.1 117.6h4.949999999999999v1.65h-4.949999999999999ZM96.0 119.25h6.6v1.65h-6.6ZM119.1 119.25h4.949999999999999v1.65h-4.949999999999999ZM96.0 120.89999999999999h6.6v1.65h-6.6ZM119.1 120.89999999999999h4.949999999999999v1.65h-4.949999999999999ZM96.0 122.55h6.6v1.65h-6.6ZM119.1 122.55h4.949999999999999v1.65h-4.949999999999999ZM96.0 124.19999999999999h6.6v1.65h-6.6ZM119.1 124.19999999999999h4.949999999999999v1.65h-4.949999999999999ZM96.0 125.85h6.6v1.65h-6.6ZM119.1 125.85h4.949999999999999v1.65h-4.949999999999999ZM96.0 127.5h6.6v1.65h-6.6ZM119.1 127.5h4.949999999999999v1.65h-4.949999999999999ZM96.0 129.14999999999998h6.6v1.65h-6.6ZM119.1 129.14999999999998h4.949999999999999v1.65h-4.949999999999999ZM96.0 130.8h6.6v1.65h-6.6ZM119.1 130.8h4.949999999999999v1.65h-4.949999999999999ZM96.0 132.45h6.6v1.65h-6.6ZM119.1 132.45h4.949999999999999v1.65h-4.949999999999999ZM96.0 134.1h6.6v1.65h-6.6ZM119.1 134.1h4.949999999999999v1.65h-4.949999999999999ZM96.0 135.75h6.6v1.65h-6.6ZM119.1 135.75h4.949999999999999v1.65h-4.949999999999999ZM96.0 137.39999999999998h6.6v1.65h-6.6ZM119.1 137.39999999999998h4.949999999999999v1.65h-4.949999999999999ZM96.0 139.05h6.6v1.65h-6.6ZM119.1 139.05h4.949999999999999v1.65h-4.949999999999999ZM96.0 140.7h6.6v1.65h-6.6ZM119.1 140.7h4.949999999999999v1.65h-4.949999999999999ZM96.0 142.35h6.6v1.65h-6.6ZM119.1 142.35h4.949999999999999v1.65h-4.949999999999999ZM96.0 144.0h6.6v1.65h-6.6ZM119.1 144.0h4.949999999999999v1.65h-4.949999999999999ZM96.0 145.64999999999998h6.6v1.65h-6.6ZM119.1 145.64999999999998h4.949999999999999v1.65h-4.949999999999999ZM96.0 147.3h6.6v1.65h-6.6ZM119.1 147.3h4.949999999999999v1.65h-4.949999999999999ZM96.0 148.95h6.6v1.65h-6.6ZM119.1 148.95h4.949999999999999v1.65h-4.949999999999999ZM96.0 150.6h6.6v1.65h-6.6ZM119.1 150.6h4.949999999999999v1.65h-4.949999999999999ZM96.0 152.25h6.6v1.65h-6.6ZM119.1 152.25h4.949999999999999v1.65h-4.949999999999999ZM96.0 153.89999999999998h6.6v1.65h-6.6ZM119.1 153.89999999999998h4.949999999999999v1.65h-4.949999999999999ZM96.0 155.55h6.6v1.65h-6.6ZM119.1 155.55h4.949999999999999v1.65h-4.949999999999999ZM96.0 157.2h6.6v1.65h-6.6ZM119.1 157.2h4.949999999999999v1.65h-4.949999999999999ZM96.0 158.85h6.6v1.65h-6.6ZM119.1 158.85h4.949999999999999v1.65h-4.949999999999999ZM96.0 160.5h28.049999999999997v1.65h-28.049999999999997ZM96.0 162.14999999999998h28.049999999999997v1.65h-28.049999999999997ZM96.0 163.8h28.049999999999997v1.65h-28.049999999999997Z" fill="#8b72d9" shape-rendering="crispEdges" /><path d="M102.6 99.44999999999999h16.5v1.65h-16.5ZM102.6 101.1h16.5v1.65h-16.5ZM102.6 102.75h16.5v1.65h-16.5ZM102.6 104.4h16.5v1.65h-16.5ZM102.6 106.05h16.5v1.65h-16.5ZM102.6 107.69999999999999h16.5v1.65h-16.5ZM102.6 109.35h16.5v1.65h-16.5ZM102.6 111.0h4.949999999999999v1.65h-4.949999999999999ZM115.8 111.0h3.3v1.65h-3.3ZM102.6 112.64999999999999h4.949999999999999v1.65h-4.949999999999999ZM115.8 112.64999999999999h3.3v1.65h-3.3ZM102.6 114.3h4.949999999999999v1.65h-4.949999999999999ZM115.8 114.3h3.3v1.65h-3.3ZM102.6 115.95h4.949999999999999v1.65h-4.949999999999999ZM115.8 115.95h3.3v1.65h-3.3ZM102.6 117.6h4.949999999999999v1.65h-4.949999999999999ZM115.8 117.6h3.3v1.65h-3.3ZM102.6 119.25h4.949999999999999v1.65h-4.949999999999999ZM115.8 119.25h3.3v1.65h-3.3ZM102.6 120.89999999999999h4.949999999999999v1.65h-4.949999999999999ZM115.8 120.89999999999999h3.3v1.65h-3.3ZM102.6 122.55h4.949999999999999v1.65h-4.949999999999999ZM115.8 122.55h3.3v1.65h-3.3ZM102.6 124.19999999999999h4.949999999999999v1.65h-4.949999999999999ZM115.8 124.19999999999999h3.3v1.65h-3.3ZM102.6 125.85h4.949999999999999v1.65h-4.949999999999999ZM115.8 125.85h3.3v1.65h-3.3ZM102.6 127.5h4.949999999999999v1.65h-4.949999999999999ZM115.8 127.5h3.3v1.65h-3.3ZM102.6 129.14999999999998h4.949999999999999v1.65h-4.949999999999999ZM115.8 129.14999999999998h3.3v1.65h-3.3ZM102.6 130.8h4.949999999999999v1.65h-4.949999999999999ZM115.8 130.8h3.3v1.65h-3.3ZM102.6 132.45h4.949999999999999v1.65h-4.949999999999999ZM115.8 132.45h3.3v1.65h-3.3ZM102.6 134.1h4.949999999999999v1.65h-4.949999999999999ZM115.8 134.1h3.3v1.65h-3.3ZM102.6 135.75h4.949999999999999v1.65h-4.949999999999999ZM115.8 135.75h3.3v1.65h-3.3ZM102.6 137.39999999999998h4.949999999999999v1.65h-4.949999999999999ZM115.8 137.39999999999998h3.3v1.65h-3.3ZM102.6 139.05h4.949999999999999v1.65h-4.949999999999999ZM115.8 139.05h3.3v1.65h-3.3ZM102.6 140.7h4.949999999999999v1.65h-4.949999999999999ZM115.8 140.7h3.3v1.65h-3.3ZM102.6 142.35h4.949999999999999v1.65h-4.949999999999999ZM115.8 142.35h3.3v1.65h-3.3ZM102.6 144.0h4.949999999999999v1.65h-4.949999999999999ZM115.8 144.0h3.3v1.65h-3.3ZM102.6 145.64999999999998h4.949999999999999v1.65h-4.949999999999999ZM115.8 145.64999999999998h3.3v1.65h-3.3ZM102.6 147.3h16.5v1.65h-16.5ZM102.6 148.95h16.5v1.65h-16.5ZM102.6 150.6h16.5v1.65h-16.5ZM102.6 152.25h16.5v1.65h-16.5ZM102.6 153.89999999999998h16.5v1.65h-16.5ZM102.6 155.55h16.5v1.65h-16.5ZM102.6 157.2h16.5v1.65h-16.5ZM102.6 158.85h16.5v1.65h-16.5Z" fill="#c6adf9" shape-rendering="crispEdges" /><path d="M66.3 102.75h6.6v1.65h-6.6ZM145.5 102.75h6.6v1.65h-6.6ZM66.3 104.4h6.6v1.65h-6.6ZM145.5 104.4h6.6v1.65h-6.6ZM66.3 106.05h6.6v1.65h-6.6ZM145.5 106.05h6.6v1.65h-6.6ZM66.3 107.69999999999999h6.6v1.65h-6.6ZM145.5 107.69999999999999h6.6v1.65h-6.6ZM66.3 109.35h6.6v1.65h-6.6ZM145.5 109.35h6.6v1.65h-6.6ZM66.3 111.0h6.6v1.65h-6.6ZM145.5 111.0h6.6v1.65h-6.6ZM66.3 112.64999999999999h6.6v1.65h-6.6ZM145.5 112.64999999999999h6.6v1.65h-6.6Z" fill="#f8c071" shape-rendering="crispEdges" /><path d="M74.55 106.05h16.5v1.65h-16.5ZM129.0 106.05h16.5v1.65h-16.5ZM74.55 122.55h16.5v1.65h-16.5ZM129.0 122.55h16.5v1.65h-16.5ZM74.55 139.05h16.5v1.65h-16.5ZM129.0 139.05h16.5v1.65h-16.5ZM74.55 155.55h16.5v1.65h-16.5ZM129.0 155.55h16.5v1.65h-16.5Z" fill="#3b4566" shape-rendering="crispEdges" /><path d="M107.55 111.0h8.25v1.65h-8.25ZM107.55 112.64999999999999h8.25v1.65h-8.25ZM107.55 114.3h8.25v1.65h-8.25ZM107.55 115.95h8.25v1.65h-8.25ZM107.55 117.6h8.25v1.65h-8.25ZM107.55 119.25h8.25v1.65h-8.25ZM107.55 120.89999999999999h8.25v1.65h-8.25ZM107.55 122.55h8.25v1.65h-8.25ZM107.55 124.19999999999999h8.25v1.65h-8.25ZM107.55 125.85h8.25v1.65h-8.25ZM107.55 127.5h8.25v1.65h-8.25ZM107.55 129.14999999999998h8.25v1.65h-8.25ZM107.55 130.8h8.25v1.65h-8.25ZM107.55 132.45h8.25v1.65h-8.25ZM107.55 134.1h8.25v1.65h-8.25ZM107.55 135.75h8.25v1.65h-8.25ZM107.55 137.39999999999998h8.25v1.65h-8.25ZM107.55 139.05h8.25v1.65h-8.25ZM107.55 140.7h8.25v1.65h-8.25ZM107.55 142.35h8.25v1.65h-8.25ZM107.55 144.0h8.25v1.65h-8.25ZM107.55 145.64999999999998h8.25v1.65h-8.25Z" fill="#f1deff" shape-rendering="crispEdges" /><path d="M41.55 130.8h18.15v1.65h-18.15ZM162.0 130.8h18.15v1.65h-18.15ZM41.55 132.45h1.65v1.65h-1.65ZM58.05 132.45h1.65v1.65h-1.65ZM162.0 132.45h1.65v1.65h-1.65ZM178.5 132.45h1.65v1.65h-1.65ZM38.25 134.1h4.949999999999999v1.65h-4.949999999999999ZM58.05 134.1h4.949999999999999v1.65h-4.949999999999999ZM158.7 134.1h4.949999999999999v1.65h-4.949999999999999ZM178.5 134.1h4.949999999999999v1.65h-4.949999999999999ZM38.25 135.75h1.65v1.65h-1.65ZM61.349999999999994 135.75h1.65v1.65h-1.65ZM158.7 135.75h1.65v1.65h-1.65ZM181.79999999999998 135.75h1.65v1.65h-1.65ZM38.25 137.39999999999998h1.65v1.65h-1.65ZM61.349999999999994 137.39999999999998h1.65v1.65h-1.65ZM158.7 137.39999999999998h1.65v1.65h-1.65ZM181.79999999999998 137.39999999999998h1.65v1.65h-1.65ZM38.25 139.05h1.65v1.65h-1.65ZM61.349999999999994 139.05h1.65v1.65h-1.65ZM158.7 139.05h1.65v1.65h-1.65ZM181.79999999999998 139.05h1.65v1.65h-1.65ZM38.25 140.7h1.65v1.65h-1.65ZM61.349999999999994 140.7h1.65v1.65h-1.65ZM158.7 140.7h1.65v1.65h-1.65ZM181.79999999999998 140.7h1.65v1.65h-1.65ZM38.25 142.35h1.65v1.65h-1.65ZM61.349999999999994 142.35h1.65v1.65h-1.65ZM158.7 142.35h1.65v1.65h-1.65ZM181.79999999999998 142.35h1.65v1.65h-1.65ZM38.25 144.0h1.65v1.65h-1.65ZM61.349999999999994 144.0h1.65v1.65h-1.65ZM158.7 144.0h1.65v1.65h-1.65ZM181.79999999999998 144.0h1.65v1.65h-1.65ZM38.25 145.64999999999998h4.949999999999999v1.65h-4.949999999999999ZM58.05 145.64999999999998h4.949999999999999v1.65h-4.949999999999999ZM158.7 145.64999999999998h4.949999999999999v1.65h-4.949999999999999ZM178.5 145.64999999999998h4.949999999999999v1.65h-4.949999999999999ZM41.55 147.3h1.65v1.65h-1.65ZM58.05 147.3h1.65v1.65h-1.65ZM162.0 147.3h1.65v1.65h-1.65ZM178.5 147.3h1.65v1.65h-1.65ZM41.55 148.95h18.15v1.65h-18.15ZM162.0 148.95h18.15v1.65h-18.15ZM43.2 155.55h14.85v1.65h-14.85ZM163.65 155.55h14.85v1.65h-14.85ZM43.2 157.2h14.85v1.65h-14.85ZM163.65 157.2h14.85v1.65h-14.85Z" fill="#8aebca" shape-rendering="crispEdges" /><path d="M43.2 132.45h14.85v1.65h-14.85ZM163.65 132.45h14.85v1.65h-14.85ZM43.2 134.1h14.85v1.65h-14.85ZM163.65 134.1h14.85v1.65h-14.85ZM39.9 135.75h21.45v1.65h-21.45ZM160.35 135.75h21.45v1.65h-21.45ZM39.9 137.39999999999998h21.45v1.65h-21.45ZM160.35 137.39999999999998h21.45v1.65h-21.45ZM39.9 139.05h21.45v1.65h-21.45ZM160.35 139.05h21.45v1.65h-21.45ZM39.9 140.7h21.45v1.65h-21.45ZM160.35 140.7h21.45v1.65h-21.45ZM39.9 142.35h21.45v1.65h-21.45ZM160.35 142.35h21.45v1.65h-21.45ZM39.9 144.0h21.45v1.65h-21.45ZM160.35 144.0h21.45v1.65h-21.45ZM43.2 145.64999999999998h14.85v1.65h-14.85ZM163.65 145.64999999999998h14.85v1.65h-14.85ZM43.2 147.3h14.85v1.65h-14.85ZM163.65 147.3h14.85v1.65h-14.85Z" fill="#142431" shape-rendering="crispEdges" /><path d="M49.8 150.6h3.3v1.65h-3.3ZM168.6 150.6h3.3v1.65h-3.3ZM49.8 152.25h3.3v1.65h-3.3ZM168.6 152.25h3.3v1.65h-3.3ZM49.8 153.89999999999998h3.3v1.65h-3.3ZM168.6 153.89999999999998h3.3v1.65h-3.3ZM49.8 158.85h3.3v1.65h-3.3ZM168.6 158.85h3.3v1.65h-3.3ZM49.8 160.5h3.3v1.65h-3.3ZM168.6 160.5h3.3v1.65h-3.3ZM49.8 162.14999999999998h3.3v1.65h-3.3ZM168.6 162.14999999999998h3.3v1.65h-3.3ZM49.8 163.8h3.3v1.65h-3.3ZM168.6 163.8h3.3v1.65h-3.3ZM49.8 165.45h3.3v1.65h-3.3ZM168.6 165.45h3.3v1.65h-3.3ZM49.8 167.1h3.3v1.65h-3.3ZM168.6 167.1h3.3v1.65h-3.3ZM49.8 168.75h3.3v1.65h-3.3ZM168.6 168.75h3.3v1.65h-3.3ZM49.8 170.39999999999998h3.3v1.65h-3.3ZM168.6 170.39999999999998h3.3v1.65h-3.3ZM49.8 172.05h3.3v1.65h-3.3ZM157.05 172.05h14.85v1.65h-14.85ZM49.8 173.7h28.049999999999997v1.65h-28.049999999999997ZM153.75 173.7h18.15v1.65h-18.15ZM49.8 175.35h31.349999999999998v1.65h-31.349999999999998ZM148.8 175.35h6.6v1.65h-6.6ZM79.5 177.0h4.949999999999999v1.65h-4.949999999999999ZM145.5 177.0h4.949999999999999v1.65h-4.949999999999999ZM82.8 178.65h3.3v1.65h-3.3ZM142.2 178.65h4.949999999999999v1.65h-4.949999999999999ZM86.1 180.29999999999998h3.3v1.65h-3.3ZM138.89999999999998 180.29999999999998h4.949999999999999v1.65h-4.949999999999999ZM87.75 181.95h4.949999999999999v1.65h-4.949999999999999ZM133.95 181.95h6.6v1.65h-6.6ZM91.05 183.6h44.55v1.65h-44.55ZM94.35 185.25h37.949999999999996v1.65h-37.949999999999996Z" fill="#81e0c4" shape-rendering="crispEdges" /><path d="M72.9 160.5h1.65v1.65h-1.65ZM69.6 162.14999999999998h4.949999999999999v1.65h-4.949999999999999ZM145.5 162.14999999999998h3.3v1.65h-3.3ZM66.3 163.8h8.25v1.65h-8.25ZM145.5 163.8h8.25v1.65h-8.25ZM61.349999999999994 165.45h13.2v1.65h-13.2ZM145.5 165.45h11.549999999999999v1.65h-11.549999999999999ZM58.05 167.1h16.5v1.65h-16.5ZM145.5 167.1h14.85v1.65h-14.85ZM54.75 168.75h19.799999999999997v1.65h-19.799999999999997ZM91.05 168.75h37.949999999999996v1.65h-37.949999999999996ZM145.5 168.75h19.799999999999997v1.65h-19.799999999999997ZM53.099999999999994 170.39999999999998h115.5v1.65h-115.5ZM53.099999999999994 172.05h103.94999999999999v1.65h-103.94999999999999ZM171.9 172.05h1.65v1.65h-1.65ZM77.85 173.7h75.89999999999999v1.65h-75.89999999999999ZM81.15 175.35h67.64999999999999v1.65h-67.64999999999999ZM155.39999999999998 175.35h14.85v1.65h-14.85ZM64.65 177.0h14.85v1.65h-14.85ZM84.44999999999999 177.0h61.05v1.65h-61.05ZM150.45 177.0h13.2v1.65h-13.2ZM69.6 178.65h13.2v1.65h-13.2ZM86.1 178.65h56.099999999999994v1.65h-56.099999999999994ZM147.14999999999998 178.65h11.549999999999999v1.65h-11.549999999999999ZM76.19999999999999 180.29999999999998h9.899999999999999v1.65h-9.899999999999999ZM89.4 180.29999999999998h49.5v1.65h-49.5ZM143.85 180.29999999999998h8.25v1.65h-8.25ZM81.15 181.95h6.6v1.65h-6.6ZM92.69999999999999 181.95h41.25v1.65h-41.25ZM140.55 181.95h6.6v1.65h-6.6ZM86.1 183.6h4.949999999999999v1.65h-4.949999999999999ZM135.6 183.6h4.949999999999999v1.65h-4.949999999999999ZM92.69999999999999 185.25h1.65v1.65h-1.65ZM132.3 185.25h3.3v1.65h-3.3ZM97.64999999999999 186.9h31.349999999999998v1.65h-31.349999999999998ZM102.6 188.54999999999998h21.45v1.65h-21.45ZM109.19999999999999 190.2h8.25v1.65h-8.25Z" fill="#233e48" shape-rendering="crispEdges" /><path d="M46.5 172.05h3.3v1.65h-3.3ZM171.9 173.7h4.949999999999999v1.65h-4.949999999999999ZM170.25 175.35h1.65v1.65h-1.65ZM59.7 177.0h4.949999999999999v1.65h-4.949999999999999ZM163.65 177.0h4.949999999999999v1.65h-4.949999999999999ZM63.0 178.65h6.6v1.65h-6.6ZM158.7 178.65h4.949999999999999v1.65h-4.949999999999999ZM67.94999999999999 180.29999999999998h8.25v1.65h-8.25ZM152.1 180.29999999999998h8.25v1.65h-8.25ZM71.25 181.95h9.899999999999999v1.65h-9.899999999999999ZM147.14999999999998 181.95h8.25v1.65h-8.25ZM76.19999999999999 183.6h9.899999999999999v1.65h-9.899999999999999ZM140.55 183.6h11.549999999999999v1.65h-11.549999999999999ZM79.5 185.25h13.2v1.65h-13.2ZM135.6 185.25h11.549999999999999v1.65h-11.549999999999999ZM84.44999999999999 186.9h13.2v1.65h-13.2ZM129.0 186.9h14.85v1.65h-14.85ZM87.75 188.54999999999998h14.85v1.65h-14.85ZM124.05 188.54999999999998h14.85v1.65h-14.85ZM92.69999999999999 190.2h16.5v1.65h-16.5ZM117.44999999999999 190.2h18.15v1.65h-18.15ZM96.0 191.85h34.65v1.65h-34.65ZM100.95 193.5h26.4v1.65h-26.4ZM104.25 195.15h18.15v1.65h-18.15ZM109.19999999999999 196.79999999999998h9.899999999999999v1.65h-9.899999999999999ZM112.5 198.45h1.65v1.65h-1.65Z" fill="#102631" shape-rendering="crispEdges" /></svg><path d="M115 31h3v3h-3ZM118 31h3v3h-3ZM121 31h3v3h-3ZM124 31h3v3h-3ZM115 34h3v3h-3ZM127 34h3v3h-3ZM115 37h3v3h-3ZM127 37h3v3h-3ZM115 40h3v3h-3ZM127 40h3v3h-3ZM115 43h3v3h-3ZM127 43h3v3h-3ZM115 46h3v3h-3ZM127 46h3v3h-3ZM115 49h3v3h-3ZM118 49h3v3h-3ZM121 49h3v3h-3ZM124 49h3v3h-3ZM133 31h3v3h-3ZM145 31h3v3h-3ZM133 34h3v3h-3ZM145 34h3v3h-3ZM133 37h3v3h-3ZM145 37h3v3h-3ZM133 40h3v3h-3ZM145 40h3v3h-3ZM133 43h3v3h-3ZM145 43h3v3h-3ZM133 46h3v3h-3ZM145 46h3v3h-3ZM136 49h3v3h-3ZM139 49h3v3h-3ZM142 49h3v3h-3ZM151 31h3v3h-3ZM163 31h3v3h-3ZM151 34h3v3h-3ZM154 34h3v3h-3ZM163 34h3v3h-3ZM151 37h3v3h-3ZM157 37h3v3h-3ZM163 37h3v3h-3ZM151 40h3v3h-3ZM160 40h3v3h-3ZM163 40h3v3h-3ZM151 43h3v3h-3ZM163 43h3v3h-3ZM151 46h3v3h-3ZM163 46h3v3h-3ZM151 49h3v3h-3ZM163 49h3v3h-3ZM172 31h3v3h-3ZM175 31h3v3h-3ZM178 31h3v3h-3ZM181 31h3v3h-3ZM169 34h3v3h-3ZM169 37h3v3h-3ZM169 40h3v3h-3ZM175 40h3v3h-3ZM178 40h3v3h-3ZM181 40h3v3h-3ZM169 43h3v3h-3ZM181 43h3v3h-3ZM169 46h3v3h-3ZM181 46h3v3h-3ZM172 49h3v3h-3ZM175 49h3v3h-3ZM178 49h3v3h-3ZM181 49h3v3h-3ZM187 31h3v3h-3ZM190 31h3v3h-3ZM193 31h3v3h-3ZM196 31h3v3h-3ZM199 31h3v3h-3ZM187 34h3v3h-3ZM187 37h3v3h-3ZM187 40h3v3h-3ZM190 40h3v3h-3ZM193 40h3v3h-3ZM196 40h3v3h-3ZM187 43h3v3h-3ZM187 46h3v3h-3ZM187 49h3v3h-3ZM190 49h3v3h-3ZM193 49h3v3h-3ZM196 49h3v3h-3ZM199 49h3v3h-3ZM208 31h3v3h-3ZM211 31h3v3h-3ZM214 31h3v3h-3ZM205 34h3v3h-3ZM217 34h3v3h-3ZM205 37h3v3h-3ZM217 37h3v3h-3ZM205 40h3v3h-3ZM217 40h3v3h-3ZM205 43h3v3h-3ZM217 43h3v3h-3ZM205 46h3v3h-3ZM217 46h3v3h-3ZM208 49h3v3h-3ZM211 49h3v3h-3ZM214 49h3v3h-3ZM223 31h3v3h-3ZM235 31h3v3h-3ZM223 34h3v3h-3ZM226 34h3v3h-3ZM235 34h3v3h-3ZM223 37h3v3h-3ZM229 37h3v3h-3ZM235 37h3v3h-3ZM223 40h3v3h-3ZM232 40h3v3h-3ZM235 40h3v3h-3ZM223 43h3v3h-3ZM235 43h3v3h-3ZM223 46h3v3h-3ZM235 46h3v3h-3ZM223 49h3v3h-3ZM235 49h3v3h-3ZM244 31h3v3h-3ZM247 31h3v3h-3ZM250 31h3v3h-3ZM253 31h3v3h-3ZM241 34h3v3h-3ZM241 37h3v3h-3ZM244 40h3v3h-3ZM247 40h3v3h-3ZM250 40h3v3h-3ZM253 43h3v3h-3ZM253 46h3v3h-3ZM241 49h3v3h-3ZM244 49h3v3h-3ZM247 49h3v3h-3ZM250 49h3v3h-3ZM262 31h3v3h-3ZM265 31h3v3h-3ZM268 31h3v3h-3ZM259 34h3v3h-3ZM271 34h3v3h-3ZM271 37h3v3h-3ZM268 40h3v3h-3ZM265 43h3v3h-3ZM262 46h3v3h-3ZM259 49h3v3h-3ZM262 49h3v3h-3ZM265 49h3v3h-3ZM268 49h3v3h-3ZM271 49h3v3h-3ZM277 40h3v3h-3ZM280 40h3v3h-3ZM283 40h3v3h-3ZM286 40h3v3h-3ZM289 40h3v3h-3ZM295 31h3v3h-3ZM295 34h3v3h-3ZM295 37h3v3h-3ZM295 40h3v3h-3ZM295 43h3v3h-3ZM295 46h3v3h-3ZM295 49h3v3h-3ZM298 49h3v3h-3ZM301 49h3v3h-3ZM304 49h3v3h-3ZM307 49h3v3h-3ZM316 31h3v3h-3ZM319 31h3v3h-3ZM322 31h3v3h-3ZM313 34h3v3h-3ZM325 34h3v3h-3ZM313 37h3v3h-3ZM325 37h3v3h-3ZM313 40h3v3h-3ZM316 40h3v3h-3ZM319 40h3v3h-3ZM322 40h3v3h-3ZM325 40h3v3h-3ZM313 43h3v3h-3ZM325 43h3v3h-3ZM313 46h3v3h-3ZM325 46h3v3h-3ZM313 49h3v3h-3ZM325 49h3v3h-3ZM331 31h3v3h-3ZM343 31h3v3h-3ZM331 34h3v3h-3ZM334 34h3v3h-3ZM343 34h3v3h-3ZM331 37h3v3h-3ZM337 37h3v3h-3ZM343 37h3v3h-3ZM331 40h3v3h-3ZM340 40h3v3h-3ZM343 40h3v3h-3ZM331 43h3v3h-3ZM343 43h3v3h-3ZM331 46h3v3h-3ZM343 46h3v3h-3ZM331 49h3v3h-3ZM343 49h3v3h-3ZM349 31h3v3h-3ZM352 31h3v3h-3ZM355 31h3v3h-3ZM358 31h3v3h-3ZM349 34h3v3h-3ZM361 34h3v3h-3ZM349 37h3v3h-3ZM361 37h3v3h-3ZM349 40h3v3h-3ZM361 40h3v3h-3ZM349 43h3v3h-3ZM361 43h3v3h-3ZM349 46h3v3h-3ZM361 46h3v3h-3ZM349 49h3v3h-3ZM352 49h3v3h-3ZM355 49h3v3h-3ZM358 49h3v3h-3ZM367 31h3v3h-3ZM370 31h3v3h-3ZM373 31h3v3h-3ZM376 31h3v3h-3ZM379 31h3v3h-3ZM373 34h3v3h-3ZM373 37h3v3h-3ZM373 40h3v3h-3ZM373 43h3v3h-3ZM373 46h3v3h-3ZM367 49h3v3h-3ZM370 49h3v3h-3ZM373 49h3v3h-3ZM376 49h3v3h-3ZM379 49h3v3h-3ZM385 31h3v3h-3ZM388 31h3v3h-3ZM391 31h3v3h-3ZM394 31h3v3h-3ZM385 34h3v3h-3ZM397 34h3v3h-3ZM385 37h3v3h-3ZM397 37h3v3h-3ZM385 40h3v3h-3ZM388 40h3v3h-3ZM391 40h3v3h-3ZM394 40h3v3h-3ZM385 43h3v3h-3ZM391 43h3v3h-3ZM385 46h3v3h-3ZM394 46h3v3h-3ZM385 49h3v3h-3ZM397 49h3v3h-3ZM403 31h3v3h-3ZM406 31h3v3h-3ZM409 31h3v3h-3ZM412 31h3v3h-3ZM415 31h3v3h-3ZM403 34h3v3h-3ZM403 37h3v3h-3ZM403 40h3v3h-3ZM406 40h3v3h-3ZM409 40h3v3h-3ZM412 40h3v3h-3ZM403 43h3v3h-3ZM403 46h3v3h-3ZM403 49h3v3h-3ZM406 49h3v3h-3ZM409 49h3v3h-3ZM412 49h3v3h-3ZM415 49h3v3h-3ZM424 31h3v3h-3ZM427 31h3v3h-3ZM430 31h3v3h-3ZM433 31h3v3h-3ZM421 34h3v3h-3ZM421 37h3v3h-3ZM421 40h3v3h-3ZM421 43h3v3h-3ZM421 46h3v3h-3ZM424 49h3v3h-3ZM427 49h3v3h-3ZM430 49h3v3h-3ZM433 49h3v3h-3ZM439 31h3v3h-3ZM442 31h3v3h-3ZM445 31h3v3h-3ZM448 31h3v3h-3ZM451 31h3v3h-3ZM445 34h3v3h-3ZM445 37h3v3h-3ZM445 40h3v3h-3ZM445 43h3v3h-3ZM445 46h3v3h-3ZM445 49h3v3h-3Z" fill="#18243c"/><path d="M112 28h3v3h-3ZM115 28h3v3h-3ZM118 28h3v3h-3ZM121 28h3v3h-3ZM112 31h3v3h-3ZM124 31h3v3h-3ZM112 34h3v3h-3ZM124 34h3v3h-3ZM112 37h3v3h-3ZM124 37h3v3h-3ZM112 40h3v3h-3ZM124 40h3v3h-3ZM112 43h3v3h-3ZM124 43h3v3h-3ZM112 46h3v3h-3ZM115 46h3v3h-3ZM118 46h3v3h-3ZM121 46h3v3h-3ZM130 28h3v3h-3ZM142 28h3v3h-3ZM130 31h3v3h-3ZM142 31h3v3h-3ZM130 34h3v3h-3ZM142 34h3v3h-3ZM130 37h3v3h-3ZM142 37h3v3h-3ZM130 40h3v3h-3ZM142 40h3v3h-3ZM130 43h3v3h-3ZM142 43h3v3h-3ZM133 46h3v3h-3ZM136 46h3v3h-3ZM139 46h3v3h-3ZM148 28h3v3h-3ZM160 28h3v3h-3ZM148 31h3v3h-3ZM151 31h3v3h-3ZM160 31h3v3h-3ZM148 34h3v3h-3ZM154 34h3v3h-3ZM160 34h3v3h-3ZM148 37h3v3h-3ZM157 37h3v3h-3ZM160 37h3v3h-3ZM148 40h3v3h-3ZM160 40h3v3h-3ZM148 43h3v3h-3ZM160 43h3v3h-3ZM148 46h3v3h-3ZM160 46h3v3h-3ZM169 28h3v3h-3ZM172 28h3v3h-3ZM175 28h3v3h-3ZM178 28h3v3h-3ZM166 31h3v3h-3ZM166 34h3v3h-3ZM166 37h3v3h-3ZM172 37h3v3h-3ZM175 37h3v3h-3ZM178 37h3v3h-3ZM166 40h3v3h-3ZM178 40h3v3h-3ZM166 43h3v3h-3ZM178 43h3v3h-3ZM169 46h3v3h-3ZM172 46h3v3h-3ZM175 46h3v3h-3ZM178 46h3v3h-3ZM184 28h3v3h-3ZM187 28h3v3h-3ZM190 28h3v3h-3ZM193 28h3v3h-3ZM196 28h3v3h-3ZM184 31h3v3h-3ZM184 34h3v3h-3ZM184 37h3v3h-3ZM187 37h3v3h-3ZM190 37h3v3h-3ZM193 37h3v3h-3ZM184 40h3v3h-3ZM184 43h3v3h-3ZM184 46h3v3h-3ZM187 46h3v3h-3ZM190 46h3v3h-3ZM193 46h3v3h-3ZM196 46h3v3h-3ZM205 28h3v3h-3ZM208 28h3v3h-3ZM211 28h3v3h-3ZM202 31h3v3h-3ZM214 31h3v3h-3ZM202 34h3v3h-3ZM214 34h3v3h-3ZM202 37h3v3h-3ZM214 37h3v3h-3ZM202 40h3v3h-3ZM214 40h3v3h-3ZM202 43h3v3h-3ZM214 43h3v3h-3ZM205 46h3v3h-3ZM208 46h3v3h-3ZM211 46h3v3h-3ZM220 28h3v3h-3ZM232 28h3v3h-3ZM220 31h3v3h-3ZM223 31h3v3h-3ZM232 31h3v3h-3ZM220 34h3v3h-3ZM226 34h3v3h-3ZM232 34h3v3h-3ZM220 37h3v3h-3ZM229 37h3v3h-3ZM232 37h3v3h-3ZM220 40h3v3h-3ZM232 40h3v3h-3ZM220 43h3v3h-3ZM232 43h3v3h-3ZM220 46h3v3h-3ZM232 46h3v3h-3ZM241 28h3v3h-3ZM244 28h3v3h-3ZM247 28h3v3h-3ZM250 28h3v3h-3ZM238 31h3v3h-3ZM238 34h3v3h-3ZM241 37h3v3h-3ZM244 37h3v3h-3ZM247 37h3v3h-3ZM250 40h3v3h-3ZM250 43h3v3h-3ZM238 46h3v3h-3ZM241 46h3v3h-3ZM244 46h3v3h-3ZM247 46h3v3h-3ZM259 28h3v3h-3ZM262 28h3v3h-3ZM265 28h3v3h-3ZM256 31h3v3h-3ZM268 31h3v3h-3ZM268 34h3v3h-3ZM265 37h3v3h-3ZM262 40h3v3h-3ZM259 43h3v3h-3ZM256 46h3v3h-3ZM259 46h3v3h-3ZM262 46h3v3h-3ZM265 46h3v3h-3ZM268 46h3v3h-3ZM274 37h3v3h-3ZM277 37h3v3h-3ZM280 37h3v3h-3ZM283 37h3v3h-3ZM286 37h3v3h-3ZM292 28h3v3h-3ZM292 31h3v3h-3ZM292 34h3v3h-3ZM292 37h3v3h-3ZM292 40h3v3h-3ZM292 43h3v3h-3ZM292 46h3v3h-3ZM295 46h3v3h-3ZM298 46h3v3h-3ZM301 46h3v3h-3ZM304 46h3v3h-3ZM313 28h3v3h-3ZM316 28h3v3h-3ZM319 28h3v3h-3ZM310 31h3v3h-3ZM322 31h3v3h-3ZM310 34h3v3h-3ZM322 34h3v3h-3ZM310 37h3v3h-3ZM313 37h3v3h-3ZM316 37h3v3h-3ZM319 37h3v3h-3ZM322 37h3v3h-3ZM310 40h3v3h-3ZM322 40h3v3h-3ZM310 43h3v3h-3ZM322 43h3v3h-3ZM310 46h3v3h-3ZM322 46h3v3h-3ZM328 28h3v3h-3ZM340 28h3v3h-3ZM328 31h3v3h-3ZM331 31h3v3h-3ZM340 31h3v3h-3ZM328 34h3v3h-3ZM334 34h3v3h-3ZM340 34h3v3h-3ZM328 37h3v3h-3ZM337 37h3v3h-3ZM340 37h3v3h-3ZM328 40h3v3h-3ZM340 40h3v3h-3ZM328 43h3v3h-3ZM340 43h3v3h-3ZM328 46h3v3h-3ZM340 46h3v3h-3ZM346 28h3v3h-3ZM349 28h3v3h-3ZM352 28h3v3h-3ZM355 28h3v3h-3ZM346 31h3v3h-3ZM358 31h3v3h-3ZM346 34h3v3h-3ZM358 34h3v3h-3ZM346 37h3v3h-3ZM358 37h3v3h-3ZM346 40h3v3h-3ZM358 40h3v3h-3ZM346 43h3v3h-3ZM358 43h3v3h-3ZM346 46h3v3h-3ZM349 46h3v3h-3ZM352 46h3v3h-3ZM355 46h3v3h-3ZM364 28h3v3h-3ZM367 28h3v3h-3ZM370 28h3v3h-3ZM373 28h3v3h-3ZM376 28h3v3h-3ZM370 31h3v3h-3ZM370 34h3v3h-3ZM370 37h3v3h-3ZM370 40h3v3h-3ZM370 43h3v3h-3ZM364 46h3v3h-3ZM367 46h3v3h-3ZM370 46h3v3h-3ZM373 46h3v3h-3ZM376 46h3v3h-3ZM382 28h3v3h-3ZM385 28h3v3h-3ZM388 28h3v3h-3ZM391 28h3v3h-3ZM382 31h3v3h-3ZM394 31h3v3h-3ZM382 34h3v3h-3ZM394 34h3v3h-3ZM382 37h3v3h-3ZM385 37h3v3h-3ZM388 37h3v3h-3ZM391 37h3v3h-3ZM382 40h3v3h-3ZM388 40h3v3h-3ZM382 43h3v3h-3ZM391 43h3v3h-3ZM382 46h3v3h-3ZM394 46h3v3h-3ZM400 28h3v3h-3ZM403 28h3v3h-3ZM406 28h3v3h-3ZM409 28h3v3h-3ZM412 28h3v3h-3ZM400 31h3v3h-3ZM400 34h3v3h-3ZM400 37h3v3h-3ZM403 37h3v3h-3ZM406 37h3v3h-3ZM409 37h3v3h-3ZM400 40h3v3h-3ZM400 43h3v3h-3ZM400 46h3v3h-3ZM403 46h3v3h-3ZM406 46h3v3h-3ZM409 46h3v3h-3ZM412 46h3v3h-3ZM421 28h3v3h-3ZM424 28h3v3h-3ZM427 28h3v3h-3ZM430 28h3v3h-3ZM418 31h3v3h-3ZM418 34h3v3h-3ZM418 37h3v3h-3ZM418 40h3v3h-3ZM418 43h3v3h-3ZM421 46h3v3h-3ZM424 46h3v3h-3ZM427 46h3v3h-3ZM430 46h3v3h-3ZM436 28h3v3h-3ZM439 28h3v3h-3ZM442 28h3v3h-3ZM445 28h3v3h-3ZM448 28h3v3h-3ZM442 31h3v3h-3ZM442 34h3v3h-3ZM442 37h3v3h-3ZM442 40h3v3h-3ZM442 43h3v3h-3ZM442 46h3v3h-3Z" fill="#edce8b"/><path d="M112 74h2.5v2.5h-2.5ZM112 76.5h2.5v2.5h-2.5ZM112 79h2.5v2.5h-2.5ZM112 81.5h2.5v2.5h-2.5ZM112 84h2.5v2.5h-2.5ZM112 86.5h2.5v2.5h-2.5ZM112 89h2.5v2.5h-2.5ZM114.5 89h2.5v2.5h-2.5ZM117 89h2.5v2.5h-2.5ZM119.5 89h2.5v2.5h-2.5ZM122 89h2.5v2.5h-2.5ZM129.5 74h2.5v2.5h-2.5ZM132 74h2.5v2.5h-2.5ZM134.5 74h2.5v2.5h-2.5ZM127 76.5h2.5v2.5h-2.5ZM137 76.5h2.5v2.5h-2.5ZM127 79h2.5v2.5h-2.5ZM137 79h2.5v2.5h-2.5ZM127 81.5h2.5v2.5h-2.5ZM129.5 81.5h2.5v2.5h-2.5ZM132 81.5h2.5v2.5h-2.5ZM134.5 81.5h2.5v2.5h-2.5ZM137 81.5h2.5v2.5h-2.5ZM127 84h2.5v2.5h-2.5ZM137 84h2.5v2.5h-2.5ZM127 86.5h2.5v2.5h-2.5ZM137 86.5h2.5v2.5h-2.5ZM127 89h2.5v2.5h-2.5ZM137 89h2.5v2.5h-2.5ZM142 74h2.5v2.5h-2.5ZM152 74h2.5v2.5h-2.5ZM142 76.5h2.5v2.5h-2.5ZM144.5 76.5h2.5v2.5h-2.5ZM152 76.5h2.5v2.5h-2.5ZM142 79h2.5v2.5h-2.5ZM147 79h2.5v2.5h-2.5ZM152 79h2.5v2.5h-2.5ZM142 81.5h2.5v2.5h-2.5ZM149.5 81.5h2.5v2.5h-2.5ZM152 81.5h2.5v2.5h-2.5ZM142 84h2.5v2.5h-2.5ZM152 84h2.5v2.5h-2.5ZM142 86.5h2.5v2.5h-2.5ZM152 86.5h2.5v2.5h-2.5ZM142 89h2.5v2.5h-2.5ZM152 89h2.5v2.5h-2.5ZM172 74h2.5v2.5h-2.5ZM182 74h2.5v2.5h-2.5ZM172 76.5h2.5v2.5h-2.5ZM174.5 76.5h2.5v2.5h-2.5ZM179.5 76.5h2.5v2.5h-2.5ZM182 76.5h2.5v2.5h-2.5ZM172 79h2.5v2.5h-2.5ZM177 79h2.5v2.5h-2.5ZM182 79h2.5v2.5h-2.5ZM172 81.5h2.5v2.5h-2.5ZM177 81.5h2.5v2.5h-2.5ZM182 81.5h2.5v2.5h-2.5ZM172 84h2.5v2.5h-2.5ZM182 84h2.5v2.5h-2.5ZM172 86.5h2.5v2.5h-2.5ZM182 86.5h2.5v2.5h-2.5ZM172 89h2.5v2.5h-2.5ZM182 89h2.5v2.5h-2.5ZM189.5 74h2.5v2.5h-2.5ZM192 74h2.5v2.5h-2.5ZM194.5 74h2.5v2.5h-2.5ZM187 76.5h2.5v2.5h-2.5ZM197 76.5h2.5v2.5h-2.5ZM187 79h2.5v2.5h-2.5ZM197 79h2.5v2.5h-2.5ZM187 81.5h2.5v2.5h-2.5ZM197 81.5h2.5v2.5h-2.5ZM187 84h2.5v2.5h-2.5ZM197 84h2.5v2.5h-2.5ZM187 86.5h2.5v2.5h-2.5ZM197 86.5h2.5v2.5h-2.5ZM189.5 89h2.5v2.5h-2.5ZM192 89h2.5v2.5h-2.5ZM194.5 89h2.5v2.5h-2.5ZM202 74h2.5v2.5h-2.5ZM204.5 74h2.5v2.5h-2.5ZM207 74h2.5v2.5h-2.5ZM209.5 74h2.5v2.5h-2.5ZM202 76.5h2.5v2.5h-2.5ZM212 76.5h2.5v2.5h-2.5ZM202 79h2.5v2.5h-2.5ZM212 79h2.5v2.5h-2.5ZM202 81.5h2.5v2.5h-2.5ZM212 81.5h2.5v2.5h-2.5ZM202 84h2.5v2.5h-2.5ZM212 84h2.5v2.5h-2.5ZM202 86.5h2.5v2.5h-2.5ZM212 86.5h2.5v2.5h-2.5ZM202 89h2.5v2.5h-2.5ZM204.5 89h2.5v2.5h-2.5ZM207 89h2.5v2.5h-2.5ZM209.5 89h2.5v2.5h-2.5Z" fill="#a0adc5"/><path d="M28.4 112h2.4v2.4h-2.4ZM30.8 112h2.4v2.4h-2.4ZM33.2 112h2.4v2.4h-2.4ZM35.6 112h2.4v2.4h-2.4ZM26 114.4h2.4v2.4h-2.4ZM26 116.8h2.4v2.4h-2.4ZM26 119.2h2.4v2.4h-2.4ZM26 121.6h2.4v2.4h-2.4ZM26 124h2.4v2.4h-2.4ZM28.4 126.4h2.4v2.4h-2.4ZM30.8 126.4h2.4v2.4h-2.4ZM33.2 126.4h2.4v2.4h-2.4ZM35.6 126.4h2.4v2.4h-2.4ZM42.8 112h2.4v2.4h-2.4ZM47.6 112h2.4v2.4h-2.4ZM42.8 114.4h2.4v2.4h-2.4ZM47.6 114.4h2.4v2.4h-2.4ZM40.4 116.8h2.4v2.4h-2.4ZM42.8 116.8h2.4v2.4h-2.4ZM45.2 116.8h2.4v2.4h-2.4ZM47.6 116.8h2.4v2.4h-2.4ZM50 116.8h2.4v2.4h-2.4ZM42.8 119.2h2.4v2.4h-2.4ZM47.6 119.2h2.4v2.4h-2.4ZM40.4 121.6h2.4v2.4h-2.4ZM42.8 121.6h2.4v2.4h-2.4ZM45.2 121.6h2.4v2.4h-2.4ZM47.6 121.6h2.4v2.4h-2.4ZM50 121.6h2.4v2.4h-2.4ZM42.8 124h2.4v2.4h-2.4ZM47.6 124h2.4v2.4h-2.4ZM42.8 126.4h2.4v2.4h-2.4ZM47.6 126.4h2.4v2.4h-2.4ZM78.8 112h2.4v2.4h-2.4ZM78.8 114.4h2.4v2.4h-2.4ZM76.4 116.8h2.4v2.4h-2.4ZM74 119.2h2.4v2.4h-2.4ZM71.6 121.6h2.4v2.4h-2.4ZM69.2 124h2.4v2.4h-2.4ZM69.2 126.4h2.4v2.4h-2.4ZM102.8 124h2.4v2.4h-2.4ZM105.2 124h2.4v2.4h-2.4ZM102.8 126.4h2.4v2.4h-2.4ZM105.2 126.4h2.4v2.4h-2.4ZM112.4 112h2.4v2.4h-2.4ZM122 112h2.4v2.4h-2.4ZM112.4 114.4h2.4v2.4h-2.4ZM114.8 114.4h2.4v2.4h-2.4ZM122 114.4h2.4v2.4h-2.4ZM112.4 116.8h2.4v2.4h-2.4ZM117.2 116.8h2.4v2.4h-2.4ZM122 116.8h2.4v2.4h-2.4ZM112.4 119.2h2.4v2.4h-2.4ZM119.6 119.2h2.4v2.4h-2.4ZM122 119.2h2.4v2.4h-2.4ZM112.4 121.6h2.4v2.4h-2.4ZM122 121.6h2.4v2.4h-2.4ZM112.4 124h2.4v2.4h-2.4ZM122 124h2.4v2.4h-2.4ZM112.4 126.4h2.4v2.4h-2.4ZM122 126.4h2.4v2.4h-2.4ZM126.8 112h2.4v2.4h-2.4ZM129.2 112h2.4v2.4h-2.4ZM131.6 112h2.4v2.4h-2.4ZM134 112h2.4v2.4h-2.4ZM136.4 112h2.4v2.4h-2.4ZM126.8 114.4h2.4v2.4h-2.4ZM126.8 116.8h2.4v2.4h-2.4ZM126.8 119.2h2.4v2.4h-2.4ZM129.2 119.2h2.4v2.4h-2.4ZM131.6 119.2h2.4v2.4h-2.4ZM134 119.2h2.4v2.4h-2.4ZM126.8 121.6h2.4v2.4h-2.4ZM126.8 124h2.4v2.4h-2.4ZM126.8 126.4h2.4v2.4h-2.4ZM129.2 126.4h2.4v2.4h-2.4ZM131.6 126.4h2.4v2.4h-2.4ZM134 126.4h2.4v2.4h-2.4ZM136.4 126.4h2.4v2.4h-2.4ZM141.2 112h2.4v2.4h-2.4ZM143.6 112h2.4v2.4h-2.4ZM146 112h2.4v2.4h-2.4ZM148.4 112h2.4v2.4h-2.4ZM150.8 112h2.4v2.4h-2.4ZM146 114.4h2.4v2.4h-2.4ZM146 116.8h2.4v2.4h-2.4ZM146 119.2h2.4v2.4h-2.4ZM146 121.6h2.4v2.4h-2.4ZM146 124h2.4v2.4h-2.4ZM146 126.4h2.4v2.4h-2.4Z" fill="#73829d"/><path d="M26 137h2.2v2.2h-2.2ZM34.8 137h2.2v2.2h-2.2ZM26 139.2h2.2v2.2h-2.2ZM34.8 139.2h2.2v2.2h-2.2ZM26 141.4h2.2v2.2h-2.2ZM34.8 141.4h2.2v2.2h-2.2ZM26 143.6h2.2v2.2h-2.2ZM30.4 143.6h2.2v2.2h-2.2ZM34.8 143.6h2.2v2.2h-2.2ZM26 145.8h2.2v2.2h-2.2ZM30.4 145.8h2.2v2.2h-2.2ZM34.8 145.8h2.2v2.2h-2.2ZM26 148h2.2v2.2h-2.2ZM30.4 148h2.2v2.2h-2.2ZM34.8 148h2.2v2.2h-2.2ZM28.2 150.2h2.2v2.2h-2.2ZM32.6 150.2h2.2v2.2h-2.2ZM39.2 137h2.2v2.2h-2.2ZM41.4 137h2.2v2.2h-2.2ZM43.6 137h2.2v2.2h-2.2ZM45.8 137h2.2v2.2h-2.2ZM48 137h2.2v2.2h-2.2ZM43.6 139.2h2.2v2.2h-2.2ZM43.6 141.4h2.2v2.2h-2.2ZM43.6 143.6h2.2v2.2h-2.2ZM43.6 145.8h2.2v2.2h-2.2ZM43.6 148h2.2v2.2h-2.2ZM39.2 150.2h2.2v2.2h-2.2ZM41.4 150.2h2.2v2.2h-2.2ZM43.6 150.2h2.2v2.2h-2.2ZM45.8 150.2h2.2v2.2h-2.2ZM48 150.2h2.2v2.2h-2.2ZM52.4 137h2.2v2.2h-2.2ZM61.2 137h2.2v2.2h-2.2ZM52.4 139.2h2.2v2.2h-2.2ZM54.6 139.2h2.2v2.2h-2.2ZM61.2 139.2h2.2v2.2h-2.2ZM52.4 141.4h2.2v2.2h-2.2ZM56.8 141.4h2.2v2.2h-2.2ZM61.2 141.4h2.2v2.2h-2.2ZM52.4 143.6h2.2v2.2h-2.2ZM59 143.6h2.2v2.2h-2.2ZM61.2 143.6h2.2v2.2h-2.2ZM52.4 145.8h2.2v2.2h-2.2ZM61.2 145.8h2.2v2.2h-2.2ZM52.4 148h2.2v2.2h-2.2ZM61.2 148h2.2v2.2h-2.2ZM52.4 150.2h2.2v2.2h-2.2ZM61.2 150.2h2.2v2.2h-2.2ZM65.6 137h2.2v2.2h-2.2ZM67.8 137h2.2v2.2h-2.2ZM70 137h2.2v2.2h-2.2ZM72.2 137h2.2v2.2h-2.2ZM65.6 139.2h2.2v2.2h-2.2ZM74.4 139.2h2.2v2.2h-2.2ZM65.6 141.4h2.2v2.2h-2.2ZM74.4 141.4h2.2v2.2h-2.2ZM65.6 143.6h2.2v2.2h-2.2ZM74.4 143.6h2.2v2.2h-2.2ZM65.6 145.8h2.2v2.2h-2.2ZM74.4 145.8h2.2v2.2h-2.2ZM65.6 148h2.2v2.2h-2.2ZM74.4 148h2.2v2.2h-2.2ZM65.6 150.2h2.2v2.2h-2.2ZM67.8 150.2h2.2v2.2h-2.2ZM70 150.2h2.2v2.2h-2.2ZM72.2 150.2h2.2v2.2h-2.2ZM81 137h2.2v2.2h-2.2ZM83.2 137h2.2v2.2h-2.2ZM85.4 137h2.2v2.2h-2.2ZM78.8 139.2h2.2v2.2h-2.2ZM87.6 139.2h2.2v2.2h-2.2ZM78.8 141.4h2.2v2.2h-2.2ZM87.6 141.4h2.2v2.2h-2.2ZM78.8 143.6h2.2v2.2h-2.2ZM87.6 143.6h2.2v2.2h-2.2ZM78.8 145.8h2.2v2.2h-2.2ZM87.6 145.8h2.2v2.2h-2.2ZM78.8 148h2.2v2.2h-2.2ZM87.6 148h2.2v2.2h-2.2ZM81 150.2h2.2v2.2h-2.2ZM83.2 150.2h2.2v2.2h-2.2ZM85.4 150.2h2.2v2.2h-2.2ZM92 137h2.2v2.2h-2.2ZM100.8 137h2.2v2.2h-2.2ZM92 139.2h2.2v2.2h-2.2ZM100.8 139.2h2.2v2.2h-2.2ZM92 141.4h2.2v2.2h-2.2ZM100.8 141.4h2.2v2.2h-2.2ZM92 143.6h2.2v2.2h-2.2ZM96.4 143.6h2.2v2.2h-2.2ZM100.8 143.6h2.2v2.2h-2.2ZM92 145.8h2.2v2.2h-2.2ZM96.4 145.8h2.2v2.2h-2.2ZM100.8 145.8h2.2v2.2h-2.2ZM92 148h2.2v2.2h-2.2ZM96.4 148h2.2v2.2h-2.2ZM100.8 148h2.2v2.2h-2.2ZM94.2 150.2h2.2v2.2h-2.2ZM98.6 150.2h2.2v2.2h-2.2ZM107.4 137h2.2v2.2h-2.2ZM109.6 137h2.2v2.2h-2.2ZM111.8 137h2.2v2.2h-2.2ZM114 137h2.2v2.2h-2.2ZM105.2 139.2h2.2v2.2h-2.2ZM105.2 141.4h2.2v2.2h-2.2ZM107.4 143.6h2.2v2.2h-2.2ZM109.6 143.6h2.2v2.2h-2.2ZM111.8 143.6h2.2v2.2h-2.2ZM114 145.8h2.2v2.2h-2.2ZM114 148h2.2v2.2h-2.2ZM105.2 150.2h2.2v2.2h-2.2ZM107.4 150.2h2.2v2.2h-2.2ZM109.6 150.2h2.2v2.2h-2.2ZM111.8 150.2h2.2v2.2h-2.2Z" fill="#a0adc5"/><path d="M26 164h2.2v2.2h-2.2ZM28.2 164h2.2v2.2h-2.2ZM30.4 164h2.2v2.2h-2.2ZM32.6 164h2.2v2.2h-2.2ZM34.8 164h2.2v2.2h-2.2ZM26 166.2h2.2v2.2h-2.2ZM26 168.4h2.2v2.2h-2.2ZM26 170.6h2.2v2.2h-2.2ZM28.2 170.6h2.2v2.2h-2.2ZM30.4 170.6h2.2v2.2h-2.2ZM32.6 170.6h2.2v2.2h-2.2ZM26 172.8h2.2v2.2h-2.2ZM26 175h2.2v2.2h-2.2ZM26 177.2h2.2v2.2h-2.2ZM28.2 177.2h2.2v2.2h-2.2ZM30.4 177.2h2.2v2.2h-2.2ZM32.6 177.2h2.2v2.2h-2.2ZM34.8 177.2h2.2v2.2h-2.2ZM39.2 164h2.2v2.2h-2.2ZM48 164h2.2v2.2h-2.2ZM39.2 166.2h2.2v2.2h-2.2ZM48 166.2h2.2v2.2h-2.2ZM41.4 168.4h2.2v2.2h-2.2ZM45.8 168.4h2.2v2.2h-2.2ZM43.6 170.6h2.2v2.2h-2.2ZM41.4 172.8h2.2v2.2h-2.2ZM45.8 172.8h2.2v2.2h-2.2ZM39.2 175h2.2v2.2h-2.2ZM48 175h2.2v2.2h-2.2ZM39.2 177.2h2.2v2.2h-2.2ZM48 177.2h2.2v2.2h-2.2ZM52.4 164h2.2v2.2h-2.2ZM54.6 164h2.2v2.2h-2.2ZM56.8 164h2.2v2.2h-2.2ZM59 164h2.2v2.2h-2.2ZM52.4 166.2h2.2v2.2h-2.2ZM61.2 166.2h2.2v2.2h-2.2ZM52.4 168.4h2.2v2.2h-2.2ZM61.2 168.4h2.2v2.2h-2.2ZM52.4 170.6h2.2v2.2h-2.2ZM54.6 170.6h2.2v2.2h-2.2ZM56.8 170.6h2.2v2.2h-2.2ZM59 170.6h2.2v2.2h-2.2ZM52.4 172.8h2.2v2.2h-2.2ZM52.4 175h2.2v2.2h-2.2ZM52.4 177.2h2.2v2.2h-2.2ZM65.6 164h2.2v2.2h-2.2ZM67.8 164h2.2v2.2h-2.2ZM70 164h2.2v2.2h-2.2ZM72.2 164h2.2v2.2h-2.2ZM74.4 164h2.2v2.2h-2.2ZM65.6 166.2h2.2v2.2h-2.2ZM65.6 168.4h2.2v2.2h-2.2ZM65.6 170.6h2.2v2.2h-2.2ZM67.8 170.6h2.2v2.2h-2.2ZM70 170.6h2.2v2.2h-2.2ZM72.2 170.6h2.2v2.2h-2.2ZM65.6 172.8h2.2v2.2h-2.2ZM65.6 175h2.2v2.2h-2.2ZM65.6 177.2h2.2v2.2h-2.2ZM67.8 177.2h2.2v2.2h-2.2ZM70 177.2h2.2v2.2h-2.2ZM72.2 177.2h2.2v2.2h-2.2ZM74.4 177.2h2.2v2.2h-2.2ZM78.8 164h2.2v2.2h-2.2ZM81 164h2.2v2.2h-2.2ZM83.2 164h2.2v2.2h-2.2ZM85.4 164h2.2v2.2h-2.2ZM78.8 166.2h2.2v2.2h-2.2ZM87.6 166.2h2.2v2.2h-2.2ZM78.8 168.4h2.2v2.2h-2.2ZM87.6 168.4h2.2v2.2h-2.2ZM78.8 170.6h2.2v2.2h-2.2ZM81 170.6h2.2v2.2h-2.2ZM83.2 170.6h2.2v2.2h-2.2ZM85.4 170.6h2.2v2.2h-2.2ZM78.8 172.8h2.2v2.2h-2.2ZM83.2 172.8h2.2v2.2h-2.2ZM78.8 175h2.2v2.2h-2.2ZM85.4 175h2.2v2.2h-2.2ZM78.8 177.2h2.2v2.2h-2.2ZM87.6 177.2h2.2v2.2h-2.2ZM92 164h2.2v2.2h-2.2ZM94.2 164h2.2v2.2h-2.2ZM96.4 164h2.2v2.2h-2.2ZM98.6 164h2.2v2.2h-2.2ZM100.8 164h2.2v2.2h-2.2ZM96.4 166.2h2.2v2.2h-2.2ZM96.4 168.4h2.2v2.2h-2.2ZM96.4 170.6h2.2v2.2h-2.2ZM96.4 172.8h2.2v2.2h-2.2ZM96.4 175h2.2v2.2h-2.2ZM92 177.2h2.2v2.2h-2.2ZM94.2 177.2h2.2v2.2h-2.2ZM96.4 177.2h2.2v2.2h-2.2ZM98.6 177.2h2.2v2.2h-2.2ZM100.8 177.2h2.2v2.2h-2.2ZM105.2 164h2.2v2.2h-2.2ZM114 164h2.2v2.2h-2.2ZM105.2 166.2h2.2v2.2h-2.2ZM107.4 166.2h2.2v2.2h-2.2ZM111.8 166.2h2.2v2.2h-2.2ZM114 166.2h2.2v2.2h-2.2ZM105.2 168.4h2.2v2.2h-2.2ZM109.6 168.4h2.2v2.2h-2.2ZM114 168.4h2.2v2.2h-2.2ZM105.2 170.6h2.2v2.2h-2.2ZM109.6 170.6h2.2v2.2h-2.2ZM114 170.6h2.2v2.2h-2.2ZM105.2 172.8h2.2v2.2h-2.2ZM114 172.8h2.2v2.2h-2.2ZM105.2 175h2.2v2.2h-2.2ZM114 175h2.2v2.2h-2.2ZM105.2 177.2h2.2v2.2h-2.2ZM114 177.2h2.2v2.2h-2.2ZM118.4 164h2.2v2.2h-2.2ZM120.6 164h2.2v2.2h-2.2ZM122.8 164h2.2v2.2h-2.2ZM125 164h2.2v2.2h-2.2ZM127.2 164h2.2v2.2h-2.2ZM118.4 166.2h2.2v2.2h-2.2ZM118.4 168.4h2.2v2.2h-2.2ZM118.4 170.6h2.2v2.2h-2.2ZM120.6 170.6h2.2v2.2h-2.2ZM122.8 170.6h2.2v2.2h-2.2ZM125 170.6h2.2v2.2h-2.2ZM118.4 172.8h2.2v2.2h-2.2ZM118.4 175h2.2v2.2h-2.2ZM118.4 177.2h2.2v2.2h-2.2ZM120.6 177.2h2.2v2.2h-2.2ZM122.8 177.2h2.2v2.2h-2.2ZM125 177.2h2.2v2.2h-2.2ZM127.2 177.2h2.2v2.2h-2.2ZM131.6 164h2.2v2.2h-2.2ZM140.4 164h2.2v2.2h-2.2ZM131.6 166.2h2.2v2.2h-2.2ZM133.8 166.2h2.2v2.2h-2.2ZM140.4 166.2h2.2v2.2h-2.2ZM131.6 168.4h2.2v2.2h-2.2ZM136 168.4h2.2v2.2h-2.2ZM140.4 168.4h2.2v2.2h-2.2ZM131.6 170.6h2.2v2.2h-2.2ZM138.2 170.6h2.2v2.2h-2.2ZM140.4 170.6h2.2v2.2h-2.2ZM131.6 172.8h2.2v2.2h-2.2ZM140.4 172.8h2.2v2.2h-2.2ZM131.6 175h2.2v2.2h-2.2ZM140.4 175h2.2v2.2h-2.2ZM131.6 177.2h2.2v2.2h-2.2ZM140.4 177.2h2.2v2.2h-2.2ZM144.8 164h2.2v2.2h-2.2ZM147 164h2.2v2.2h-2.2ZM149.2 164h2.2v2.2h-2.2ZM151.4 164h2.2v2.2h-2.2ZM153.6 164h2.2v2.2h-2.2ZM149.2 166.2h2.2v2.2h-2.2ZM149.2 168.4h2.2v2.2h-2.2ZM149.2 170.6h2.2v2.2h-2.2ZM149.2 172.8h2.2v2.2h-2.2ZM149.2 175h2.2v2.2h-2.2ZM149.2 177.2h2.2v2.2h-2.2ZM160.2 164h2.2v2.2h-2.2ZM162.4 164h2.2v2.2h-2.2ZM164.6 164h2.2v2.2h-2.2ZM158 166.2h2.2v2.2h-2.2ZM166.8 166.2h2.2v2.2h-2.2ZM158 168.4h2.2v2.2h-2.2ZM166.8 168.4h2.2v2.2h-2.2ZM158 170.6h2.2v2.2h-2.2ZM160.2 170.6h2.2v2.2h-2.2ZM162.4 170.6h2.2v2.2h-2.2ZM164.6 170.6h2.2v2.2h-2.2ZM166.8 170.6h2.2v2.2h-2.2ZM158 172.8h2.2v2.2h-2.2ZM166.8 172.8h2.2v2.2h-2.2ZM158 175h2.2v2.2h-2.2ZM166.8 175h2.2v2.2h-2.2ZM158 177.2h2.2v2.2h-2.2ZM166.8 177.2h2.2v2.2h-2.2ZM171.2 164h2.2v2.2h-2.2ZM171.2 166.2h2.2v2.2h-2.2ZM171.2 168.4h2.2v2.2h-2.2ZM171.2 170.6h2.2v2.2h-2.2ZM171.2 172.8h2.2v2.2h-2.2ZM171.2 175h2.2v2.2h-2.2ZM171.2 177.2h2.2v2.2h-2.2ZM173.4 177.2h2.2v2.2h-2.2ZM175.6 177.2h2.2v2.2h-2.2ZM177.8 177.2h2.2v2.2h-2.2ZM180 177.2h2.2v2.2h-2.2ZM206.4 164h2.2v2.2h-2.2ZM206.4 166.2h2.2v2.2h-2.2ZM204.2 168.4h2.2v2.2h-2.2ZM202 170.6h2.2v2.2h-2.2ZM199.8 172.8h2.2v2.2h-2.2ZM197.6 175h2.2v2.2h-2.2ZM197.6 177.2h2.2v2.2h-2.2ZM224 164h2.2v2.2h-2.2ZM232.8 164h2.2v2.2h-2.2ZM224 166.2h2.2v2.2h-2.2ZM226.2 166.2h2.2v2.2h-2.2ZM230.6 166.2h2.2v2.2h-2.2ZM232.8 166.2h2.2v2.2h-2.2ZM224 168.4h2.2v2.2h-2.2ZM228.4 168.4h2.2v2.2h-2.2ZM232.8 168.4h2.2v2.2h-2.2ZM224 170.6h2.2v2.2h-2.2ZM228.4 170.6h2.2v2.2h-2.2ZM232.8 170.6h2.2v2.2h-2.2ZM224 172.8h2.2v2.2h-2.2ZM232.8 172.8h2.2v2.2h-2.2ZM224 175h2.2v2.2h-2.2ZM232.8 175h2.2v2.2h-2.2ZM224 177.2h2.2v2.2h-2.2ZM232.8 177.2h2.2v2.2h-2.2ZM237.2 164h2.2v2.2h-2.2ZM246 164h2.2v2.2h-2.2ZM237.2 166.2h2.2v2.2h-2.2ZM246 166.2h2.2v2.2h-2.2ZM237.2 168.4h2.2v2.2h-2.2ZM246 168.4h2.2v2.2h-2.2ZM237.2 170.6h2.2v2.2h-2.2ZM246 170.6h2.2v2.2h-2.2ZM237.2 172.8h2.2v2.2h-2.2ZM246 172.8h2.2v2.2h-2.2ZM237.2 175h2.2v2.2h-2.2ZM246 175h2.2v2.2h-2.2ZM239.4 177.2h2.2v2.2h-2.2ZM241.6 177.2h2.2v2.2h-2.2ZM243.8 177.2h2.2v2.2h-2.2ZM250.4 164h2.2v2.2h-2.2ZM250.4 166.2h2.2v2.2h-2.2ZM250.4 168.4h2.2v2.2h-2.2ZM250.4 170.6h2.2v2.2h-2.2ZM250.4 172.8h2.2v2.2h-2.2ZM250.4 175h2.2v2.2h-2.2ZM250.4 177.2h2.2v2.2h-2.2ZM252.6 177.2h2.2v2.2h-2.2ZM254.8 177.2h2.2v2.2h-2.2ZM257 177.2h2.2v2.2h-2.2ZM259.2 177.2h2.2v2.2h-2.2ZM263.6 164h2.2v2.2h-2.2ZM265.8 164h2.2v2.2h-2.2ZM268 164h2.2v2.2h-2.2ZM270.2 164h2.2v2.2h-2.2ZM272.4 164h2.2v2.2h-2.2ZM268 166.2h2.2v2.2h-2.2ZM268 168.4h2.2v2.2h-2.2ZM268 170.6h2.2v2.2h-2.2ZM268 172.8h2.2v2.2h-2.2ZM268 175h2.2v2.2h-2.2ZM268 177.2h2.2v2.2h-2.2ZM276.8 164h2.2v2.2h-2.2ZM279 164h2.2v2.2h-2.2ZM281.2 164h2.2v2.2h-2.2ZM283.4 164h2.2v2.2h-2.2ZM285.6 164h2.2v2.2h-2.2ZM281.2 166.2h2.2v2.2h-2.2ZM281.2 168.4h2.2v2.2h-2.2ZM281.2 170.6h2.2v2.2h-2.2ZM281.2 172.8h2.2v2.2h-2.2ZM281.2 175h2.2v2.2h-2.2ZM276.8 177.2h2.2v2.2h-2.2ZM279 177.2h2.2v2.2h-2.2ZM281.2 177.2h2.2v2.2h-2.2ZM283.4 177.2h2.2v2.2h-2.2ZM285.6 177.2h2.2v2.2h-2.2ZM290 164h2.2v2.2h-2.2ZM292.2 164h2.2v2.2h-2.2ZM294.4 164h2.2v2.2h-2.2ZM296.6 164h2.2v2.2h-2.2ZM290 166.2h2.2v2.2h-2.2ZM298.8 166.2h2.2v2.2h-2.2ZM290 168.4h2.2v2.2h-2.2ZM298.8 168.4h2.2v2.2h-2.2ZM290 170.6h2.2v2.2h-2.2ZM292.2 170.6h2.2v2.2h-2.2ZM294.4 170.6h2.2v2.2h-2.2ZM296.6 170.6h2.2v2.2h-2.2ZM290 172.8h2.2v2.2h-2.2ZM290 175h2.2v2.2h-2.2ZM290 177.2h2.2v2.2h-2.2ZM303.2 164h2.2v2.2h-2.2ZM303.2 166.2h2.2v2.2h-2.2ZM303.2 168.4h2.2v2.2h-2.2ZM303.2 170.6h2.2v2.2h-2.2ZM303.2 172.8h2.2v2.2h-2.2ZM303.2 175h2.2v2.2h-2.2ZM303.2 177.2h2.2v2.2h-2.2ZM305.4 177.2h2.2v2.2h-2.2ZM307.6 177.2h2.2v2.2h-2.2ZM309.8 177.2h2.2v2.2h-2.2ZM312 177.2h2.2v2.2h-2.2ZM318.6 164h2.2v2.2h-2.2ZM320.8 164h2.2v2.2h-2.2ZM323 164h2.2v2.2h-2.2ZM316.4 166.2h2.2v2.2h-2.2ZM325.2 166.2h2.2v2.2h-2.2ZM316.4 168.4h2.2v2.2h-2.2ZM325.2 168.4h2.2v2.2h-2.2ZM316.4 170.6h2.2v2.2h-2.2ZM318.6 170.6h2.2v2.2h-2.2ZM320.8 170.6h2.2v2.2h-2.2ZM323 170.6h2.2v2.2h-2.2ZM325.2 170.6h2.2v2.2h-2.2ZM316.4 172.8h2.2v2.2h-2.2ZM325.2 172.8h2.2v2.2h-2.2ZM316.4 175h2.2v2.2h-2.2ZM325.2 175h2.2v2.2h-2.2ZM316.4 177.2h2.2v2.2h-2.2ZM325.2 177.2h2.2v2.2h-2.2ZM329.6 164h2.2v2.2h-2.2ZM338.4 164h2.2v2.2h-2.2ZM329.6 166.2h2.2v2.2h-2.2ZM338.4 166.2h2.2v2.2h-2.2ZM331.8 168.4h2.2v2.2h-2.2ZM336.2 168.4h2.2v2.2h-2.2ZM334 170.6h2.2v2.2h-2.2ZM334 172.8h2.2v2.2h-2.2ZM334 175h2.2v2.2h-2.2ZM334 177.2h2.2v2.2h-2.2ZM342.8 164h2.2v2.2h-2.2ZM345 164h2.2v2.2h-2.2ZM347.2 164h2.2v2.2h-2.2ZM349.4 164h2.2v2.2h-2.2ZM351.6 164h2.2v2.2h-2.2ZM342.8 166.2h2.2v2.2h-2.2ZM342.8 168.4h2.2v2.2h-2.2ZM342.8 170.6h2.2v2.2h-2.2ZM345 170.6h2.2v2.2h-2.2ZM347.2 170.6h2.2v2.2h-2.2ZM349.4 170.6h2.2v2.2h-2.2ZM342.8 172.8h2.2v2.2h-2.2ZM342.8 175h2.2v2.2h-2.2ZM342.8 177.2h2.2v2.2h-2.2ZM345 177.2h2.2v2.2h-2.2ZM347.2 177.2h2.2v2.2h-2.2ZM349.4 177.2h2.2v2.2h-2.2ZM351.6 177.2h2.2v2.2h-2.2ZM356 164h2.2v2.2h-2.2ZM358.2 164h2.2v2.2h-2.2ZM360.4 164h2.2v2.2h-2.2ZM362.6 164h2.2v2.2h-2.2ZM356 166.2h2.2v2.2h-2.2ZM364.8 166.2h2.2v2.2h-2.2ZM356 168.4h2.2v2.2h-2.2ZM364.8 168.4h2.2v2.2h-2.2ZM356 170.6h2.2v2.2h-2.2ZM358.2 170.6h2.2v2.2h-2.2ZM360.4 170.6h2.2v2.2h-2.2ZM362.6 170.6h2.2v2.2h-2.2ZM356 172.8h2.2v2.2h-2.2ZM360.4 172.8h2.2v2.2h-2.2ZM356 175h2.2v2.2h-2.2ZM362.6 175h2.2v2.2h-2.2ZM356 177.2h2.2v2.2h-2.2ZM364.8 177.2h2.2v2.2h-2.2ZM382.4 164h2.2v2.2h-2.2ZM391.2 164h2.2v2.2h-2.2ZM382.4 166.2h2.2v2.2h-2.2ZM391.2 166.2h2.2v2.2h-2.2ZM382.4 168.4h2.2v2.2h-2.2ZM391.2 168.4h2.2v2.2h-2.2ZM382.4 170.6h2.2v2.2h-2.2ZM391.2 170.6h2.2v2.2h-2.2ZM382.4 172.8h2.2v2.2h-2.2ZM391.2 172.8h2.2v2.2h-2.2ZM382.4 175h2.2v2.2h-2.2ZM391.2 175h2.2v2.2h-2.2ZM384.6 177.2h2.2v2.2h-2.2ZM386.8 177.2h2.2v2.2h-2.2ZM389 177.2h2.2v2.2h-2.2ZM395.6 164h2.2v2.2h-2.2ZM404.4 164h2.2v2.2h-2.2ZM395.6 166.2h2.2v2.2h-2.2ZM397.8 166.2h2.2v2.2h-2.2ZM404.4 166.2h2.2v2.2h-2.2ZM395.6 168.4h2.2v2.2h-2.2ZM400 168.4h2.2v2.2h-2.2ZM404.4 168.4h2.2v2.2h-2.2ZM395.6 170.6h2.2v2.2h-2.2ZM402.2 170.6h2.2v2.2h-2.2ZM404.4 170.6h2.2v2.2h-2.2ZM395.6 172.8h2.2v2.2h-2.2ZM404.4 172.8h2.2v2.2h-2.2ZM395.6 175h2.2v2.2h-2.2ZM404.4 175h2.2v2.2h-2.2ZM395.6 177.2h2.2v2.2h-2.2ZM404.4 177.2h2.2v2.2h-2.2ZM408.8 164h2.2v2.2h-2.2ZM417.6 164h2.2v2.2h-2.2ZM408.8 166.2h2.2v2.2h-2.2ZM417.6 166.2h2.2v2.2h-2.2ZM408.8 168.4h2.2v2.2h-2.2ZM417.6 168.4h2.2v2.2h-2.2ZM408.8 170.6h2.2v2.2h-2.2ZM417.6 170.6h2.2v2.2h-2.2ZM408.8 172.8h2.2v2.2h-2.2ZM417.6 172.8h2.2v2.2h-2.2ZM411 175h2.2v2.2h-2.2ZM415.4 175h2.2v2.2h-2.2ZM413.2 177.2h2.2v2.2h-2.2ZM422 164h2.2v2.2h-2.2ZM424.2 164h2.2v2.2h-2.2ZM426.4 164h2.2v2.2h-2.2ZM428.6 164h2.2v2.2h-2.2ZM430.8 164h2.2v2.2h-2.2ZM422 166.2h2.2v2.2h-2.2ZM422 168.4h2.2v2.2h-2.2ZM422 170.6h2.2v2.2h-2.2ZM424.2 170.6h2.2v2.2h-2.2ZM426.4 170.6h2.2v2.2h-2.2ZM428.6 170.6h2.2v2.2h-2.2ZM422 172.8h2.2v2.2h-2.2ZM422 175h2.2v2.2h-2.2ZM422 177.2h2.2v2.2h-2.2ZM424.2 177.2h2.2v2.2h-2.2ZM426.4 177.2h2.2v2.2h-2.2ZM428.6 177.2h2.2v2.2h-2.2ZM430.8 177.2h2.2v2.2h-2.2ZM435.2 164h2.2v2.2h-2.2ZM437.4 164h2.2v2.2h-2.2ZM439.6 164h2.2v2.2h-2.2ZM441.8 164h2.2v2.2h-2.2ZM435.2 166.2h2.2v2.2h-2.2ZM444 166.2h2.2v2.2h-2.2ZM435.2 168.4h2.2v2.2h-2.2ZM444 168.4h2.2v2.2h-2.2ZM435.2 170.6h2.2v2.2h-2.2ZM437.4 170.6h2.2v2.2h-2.2ZM439.6 170.6h2.2v2.2h-2.2ZM441.8 170.6h2.2v2.2h-2.2ZM435.2 172.8h2.2v2.2h-2.2ZM439.6 172.8h2.2v2.2h-2.2ZM435.2 175h2.2v2.2h-2.2ZM441.8 175h2.2v2.2h-2.2ZM435.2 177.2h2.2v2.2h-2.2ZM444 177.2h2.2v2.2h-2.2ZM448.4 164h2.2v2.2h-2.2ZM450.6 164h2.2v2.2h-2.2ZM452.8 164h2.2v2.2h-2.2ZM455 164h2.2v2.2h-2.2ZM457.2 164h2.2v2.2h-2.2ZM452.8 166.2h2.2v2.2h-2.2ZM452.8 168.4h2.2v2.2h-2.2ZM452.8 170.6h2.2v2.2h-2.2ZM452.8 172.8h2.2v2.2h-2.2ZM452.8 175h2.2v2.2h-2.2ZM448.4 177.2h2.2v2.2h-2.2ZM450.6 177.2h2.2v2.2h-2.2ZM452.8 177.2h2.2v2.2h-2.2ZM455 177.2h2.2v2.2h-2.2ZM457.2 177.2h2.2v2.2h-2.2ZM461.6 164h2.2v2.2h-2.2ZM463.8 164h2.2v2.2h-2.2ZM466 164h2.2v2.2h-2.2ZM468.2 164h2.2v2.2h-2.2ZM470.4 164h2.2v2.2h-2.2ZM461.6 166.2h2.2v2.2h-2.2ZM461.6 168.4h2.2v2.2h-2.2ZM461.6 170.6h2.2v2.2h-2.2ZM463.8 170.6h2.2v2.2h-2.2ZM466 170.6h2.2v2.2h-2.2ZM468.2 170.6h2.2v2.2h-2.2ZM461.6 172.8h2.2v2.2h-2.2ZM461.6 175h2.2v2.2h-2.2ZM461.6 177.2h2.2v2.2h-2.2ZM474.8 164h2.2v2.2h-2.2ZM477 164h2.2v2.2h-2.2ZM479.2 164h2.2v2.2h-2.2ZM481.4 164h2.2v2.2h-2.2ZM483.6 164h2.2v2.2h-2.2ZM479.2 166.2h2.2v2.2h-2.2ZM479.2 168.4h2.2v2.2h-2.2ZM479.2 170.6h2.2v2.2h-2.2ZM479.2 172.8h2.2v2.2h-2.2ZM479.2 175h2.2v2.2h-2.2ZM474.8 177.2h2.2v2.2h-2.2ZM477 177.2h2.2v2.2h-2.2ZM479.2 177.2h2.2v2.2h-2.2ZM481.4 177.2h2.2v2.2h-2.2ZM483.6 177.2h2.2v2.2h-2.2ZM488 164h2.2v2.2h-2.2ZM490.2 164h2.2v2.2h-2.2ZM492.4 164h2.2v2.2h-2.2ZM494.6 164h2.2v2.2h-2.2ZM496.8 164h2.2v2.2h-2.2ZM488 166.2h2.2v2.2h-2.2ZM488 168.4h2.2v2.2h-2.2ZM488 170.6h2.2v2.2h-2.2ZM490.2 170.6h2.2v2.2h-2.2ZM492.4 170.6h2.2v2.2h-2.2ZM494.6 170.6h2.2v2.2h-2.2ZM488 172.8h2.2v2.2h-2.2ZM488 175h2.2v2.2h-2.2ZM488 177.2h2.2v2.2h-2.2ZM490.2 177.2h2.2v2.2h-2.2ZM492.4 177.2h2.2v2.2h-2.2ZM494.6 177.2h2.2v2.2h-2.2ZM496.8 177.2h2.2v2.2h-2.2ZM501.2 164h2.2v2.2h-2.2ZM503.4 164h2.2v2.2h-2.2ZM505.6 164h2.2v2.2h-2.2ZM507.8 164h2.2v2.2h-2.2ZM501.2 166.2h2.2v2.2h-2.2ZM510 166.2h2.2v2.2h-2.2ZM501.2 168.4h2.2v2.2h-2.2ZM510 168.4h2.2v2.2h-2.2ZM501.2 170.6h2.2v2.2h-2.2ZM510 170.6h2.2v2.2h-2.2ZM501.2 172.8h2.2v2.2h-2.2ZM510 172.8h2.2v2.2h-2.2ZM501.2 175h2.2v2.2h-2.2ZM510 175h2.2v2.2h-2.2ZM501.2 177.2h2.2v2.2h-2.2ZM503.4 177.2h2.2v2.2h-2.2ZM505.6 177.2h2.2v2.2h-2.2ZM507.8 177.2h2.2v2.2h-2.2Z" fill="#73829d"/><path d="M557 31h2v2h-2ZM559 33h2v2h-2ZM561 35h2v2h-2ZM563 37h2v2h-2ZM561 39h2v2h-2ZM559 41h2v2h-2ZM557 43h2v2h-2Z" fill="#edce8b"/></svg>
