<svg xmlns="http://www.w3.org/2000/svg" viewBox="0 0 600 68" role="img" aria-label="Tech Stack"><title>Tech Stack</title><rect width="600" height="68" fill="#0a0d19"/><path d="M12 26h2v2h-2ZM14 28h2v2h-2ZM16 30h2v2h-2ZM18 32h2v2h-2ZM16 34h2v2h-2ZM14 36h2v2h-2ZM12 38h2v2h-2Z" fill="#ae93ff"/><path d="M42 22h3v3h-3ZM45 22h3v3h-3ZM48 22h3v3h-3ZM51 22h3v3h-3ZM54 22h3v3h-3ZM48 25h3v3h-3ZM48 28h3v3h-3ZM48 31h3v3h-3ZM48 34h3v3h-3ZM48 37h3v3h-3ZM48 40h3v3h-3ZM60 22h3v3h-3ZM63 22h3v3h-3ZM66 22h3v3h-3ZM69 22h3v3h-3ZM72 22h3v3h-3ZM60 25h3v3h-3ZM60 28h3v3h-3ZM60 31h3v3h-3ZM63 31h3v3h-3ZM66 31h3v3h-3ZM69 31h3v3h-3ZM60 34h3v3h-3ZM60 37h3v3h-3ZM60 40h3v3h-3ZM63 40h3v3h-3ZM66 40h3v3h-3ZM69 40h3v3h-3ZM72 40h3v3h-3ZM81 22h3v3h-3ZM84 22h3v3h-3ZM87 22h3v3h-3ZM90 22h3v3h-3ZM78 25h3v3h-3ZM78 28h3v3h-3ZM78 31h3v3h-3ZM78 34h3v3h-3ZM78 37h3v3h-3ZM81 40h3v3h-3ZM84 40h3v3h-3ZM87 40h3v3h-3ZM90 40h3v3h-3ZM96 22h3v3h-3ZM108 22h3v3h-3ZM96 25h3v3h-3ZM108 25h3v3h-3ZM96 28h3v3h-3ZM108 28h3v3h-3ZM96 31h3v3h-3ZM99 31h3v3h-3ZM102 31h3v3h-3ZM105 31h3v3h-3ZM108 31h3v3h-3ZM96 34h3v3h-3ZM108 34h3v3h-3ZM96 37h3v3h-3ZM108 37h3v3h-3ZM96 40h3v3h-3ZM108 40h3v3h-3ZM135 22h3v3h-3ZM138 22h3v3h-3ZM141 22h3v3h-3ZM144 22h3v3h-3ZM132 25h3v3h-3ZM132 28h3v3h-3ZM135 31h3v3h-3ZM138 31h3v3h-3ZM141 31h3v3h-3ZM144 34h3v3h-3ZM144 37h3v3h-3ZM132 40h3v3h-3ZM135 40h3v3h-3ZM138 40h3v3h-3ZM141 40h3v3h-3ZM150 22h3v3h-3ZM153 22h3v3h-3ZM156 22h3v3h-3ZM159 22h3v3h-3ZM162 22h3v3h-3ZM156 25h3v3h-3ZM156 28h3v3h-3ZM156 31h3v3h-3ZM156 34h3v3h-3ZM156 37h3v3h-3ZM156 40h3v3h-3ZM171 22h3v3h-3ZM174 22h3v3h-3ZM177 22h3v3h-3ZM168 25h3v3h-3ZM180 25h3v3h-3ZM168 28h3v3h-3ZM180 28h3v3h-3ZM168 31h3v3h-3ZM171 31h3v3h-3ZM174 31h3v3h-3ZM177 31h3v3h-3ZM180 31h3v3h-3ZM168 34h3v3h-3ZM180 34h3v3h-3ZM168 37h3v3h-3ZM180 37h3v3h-3ZM168 40h3v3h-3ZM180 40h3v3h-3ZM189 22h3v3h-3ZM192 22h3v3h-3ZM195 22h3v3h-3ZM198 22h3v3h-3ZM186 25h3v3h-3ZM186 28h3v3h-3ZM186 31h3v3h-3ZM186 34h3v3h-3ZM186 37h3v3h-3ZM189 40h3v3h-3ZM192 40h3v3h-3ZM195 40h3v3h-3ZM198 40h3v3h-3ZM204 22h3v3h-3ZM216 22h3v3h-3ZM204 25h3v3h-3ZM213 25h3v3h-3ZM204 28h3v3h-3ZM210 28h3v3h-3ZM204 31h3v3h-3ZM207 31h3v3h-3ZM204 34h3v3h-3ZM210 34h3v3h-3ZM204 37h3v3h-3ZM213 37h3v3h-3ZM204 40h3v3h-3ZM216 40h3v3h-3Z" fill="#edf2ff"/><path d="M0 64H600" stroke="#2c3855"/></svg>
